<?xml version="1.0" encoding="utf-8"?>
<!DOCTYPE svg PUBLIC "-//W3C//DTD SVG 1.0//EN" "http://www.w3.org/TR/2001/REC-SVG-20010904/DTD/svg10.dtd">
<svg version="1.0" xmlns="http://www.w3.org/2000/svg" width="1600px" height="1539px" viewBox="0 0 1600 1539" preserveAspectRatio="xMidYMid meet">
 <g fill="#000000">
  <path d="M0 769.5 l0 -769.5 397.5 0 c396.8 0 397.5 0 397.5 2 0 1.7 -0.7 2 -4 2 -7.6 0 -14 4.3 -12.4 8.4 0.5 1.4 3.6 1.6 23 1.6 19.7 0 22.4 -0.2 22.4 -1.6 0 -4.3 -5.6 -8.4 -11.5 -8.4 -1.8 0 -2.5 -0.5 -2.5 -2 0 -2 0.7 -2 395 -2 l395 0 0 386 c0 342.4 -0.2 386 -1.5 386 -0.8 0 -1.5 -0.5 -1.5 -1 0 -0.6 -0.6 -1.8 -1.2 -2.6 -5.4 -6.7 -10.6 -8.7 -18.4 -7.3 -11.3 2.1 -19.4 8.8 -37.7 31.1 -13.1 16.1 -20.4 23.5 -25.4 26.1 -1.7 0.9 -5.9 2.1 -9.4 2.6 -7.8 1.3 -30.9 1.4 -32.8 0.2 -2.2 -1.4 -0.8 -11.5 3.9 -28.1 2.3 -8 5 -17.4 6 -21 0.9 -3.6 4.6 -15.9 8 -27.5 8.2 -27.7 16.1 -55.3 19.9 -69.5 3.9 -14.7 9.3 -31.2 12.1 -37.3 1.8 -3.7 4.1 -6.2 10.9 -11.2 12.3 -9.1 13.8 -12.8 6.5 -16.5 -2.4 -1.2 -9.6 -1.6 -38.4 -2 -42.4 -0.6 -64.9 0.1 -70.2 2.3 -2 0.8 -4.4 2.7 -5.3 4 -1.6 2.5 -1.5 2.8 2 9.9 3.9 8.2 5.4 17.5 3.7 24.3 -0.5 2.2 -4.6 16.6 -9 32 -4.4 15.4 -10.5 37.2 -13.7 48.5 -3.1 11.3 -7.7 27.5 -10.1 36 -2.4 8.5 -6.7 23.6 -9.5 33.5 -2.8 9.9 -6.1 19.8 -7.4 22.1 -2.5 4.3 -8.4 10.1 -15.1 14.9 -5.5 3.9 -8.6 8.3 -7.4 10.5 0.5 1 2.6 2.6 4.7 3.6 3.5 1.7 8.8 1.9 74.8 2.7 96.3 1.1 120.9 0 130.4 -6.1 4.4 -2.8 9 -8.4 12 -14.7 2.9 -5.9 9.1 -26.6 12.7 -41.7 1 -4.3 2.1 -7.8 2.6 -7.8 0.4 0 0.8 -1.1 0.8 -2.5 0 -1.6 0.6 -2.5 1.5 -2.5 1.3 0 1.5 43 1.5 381 l0 381 -800 0 -800 0 0 -769.5z m862 765.5 c0 -0.5 0.7 -1 1.5 -1 4.4 0 17.1 -16.9 25 -33.5 3.6 -7.7 12.5 -31.2 12.5 -33.3 0 -0.2 -2.9 4.4 -6.5 10.4 -8.7 14.4 -10.9 16.7 -15.7 16.2 -2.9 -0.3 -3.8 0 -3.8 1.2 0 2.8 -6.7 15.4 -9.5 18 -2.5 2.3 -3.4 2.5 -11.8 2.5 -7.3 -0.1 -10.9 -0.7 -17.7 -2.9 -19.1 -6.4 -35.9 -16.7 -39.5 -24.3 -2.4 -5 -1.3 -12.9 3 -22 3.1 -6.7 3.2 -7.3 1.5 -7.3 -1.8 0 -2 -0.7 -1.9 -5.7 0 -3.2 1.1 -9.8 2.3 -14.8 1.3 -4.9 2.3 -9.1 2.2 -9.2 -0.1 -0.2 -3.5 5.4 -7.6 12.3 -8.8 15 -13.6 27.3 -16 40.9 -2.4 13.1 -1.6 15.5 8.2 22.6 15.3 11.1 42 24.1 56.9 27.6 4 1 7.6 2.1 7.7 2.5 0.5 1.2 9.2 1 9.2 -0.2z m25.1 -80.7 c4.4 -11.1 8.2 -21.5 8.5 -23.2 0.5 -2.1 1.2 -3.1 2.5 -3.1 1.5 0 1.9 -0.7 1.9 -3.1 0 -2.9 7.3 -15.7 9.9 -17.3 1.8 -1.1 1.3 -2.6 -0.9 -2.6 -1.1 0 -6.6 -3 -12.3 -6.7 -12.6 -8.2 -19.2 -11.2 -33.2 -15.2 -13.2 -3.8 -16.5 -5 -18.5 -6.7 -1.4 -1.2 -1.9 0 -4 10.3 -1.9 9 -2.9 11.7 -4.2 12.1 -1.2 0.3 -1.8 1.4 -1.8 3.3 0 1.8 -4.5 11.5 -11.7 25.1 -6.5 12.2 -11.9 22.6 -12.1 23 -0.2 0.4 0.5 0.8 1.6 0.8 1.1 0 6.4 2.8 11.8 6.2 13.6 8.5 27.1 14.6 38.9 17.5 5.5 1.3 10.9 3 12 3.8 1.8 1.1 2.1 1 2.9 -1.4 0.4 -1.4 4.4 -11.7 8.7 -22.8z m-252.2 -34.9 l3.1 -0.6 0 -10.1 0 -10 -5.5 0.6 c-6.5 0.7 -14.4 4.7 -17.5 9 -2.1 2.8 -2.2 3.3 -0.9 5.6 2.8 5.1 11.5 7.3 20.8 5.5z m347.5 -8.9 c-0.6 -1.4 -5.3 -4.5 -6.9 -4.5 -0.3 0 -0.5 3.3 -0.5 7.3 l0.1 7.2 3.9 -4.2 c2.6 -2.7 3.8 -4.8 3.4 -5.8z m-42.6 -25.5 c2.8 0 3.3 -0.3 2.4 -1.2 -1.5 -1.5 -1.5 -6.5 0 -10.9 0.6 -1.9 3.8 -7.9 7 -13.4 8.5 -14.3 12.1 -22.4 16.3 -36.2 l3.8 -12.2 -2.7 -3.6 c-3.2 -4.1 -30 -22.4 -39 -26.6 -6.6 -3 -25 -8.5 -38.3 -11.4 -7.7 -1.7 -8.4 -1.7 -10.8 -0.1 -1.3 0.9 -3.6 3.9 -5 6.7 -1.4 2.7 -4.5 7.8 -6.8 11.2 -4.1 6.1 -9.6 18.8 -13.6 31.7 -1.1 3.6 -3.1 9.1 -4.6 12.3 -2.5 5.4 -2.9 5.7 -6.3 5.8 -2 0.1 -2.9 0.3 -1.9 0.6 1.9 0.5 2.4 6.1 0.7 9.3 -0.8 1.5 -0.5 1.8 2.4 2.2 l3.4 0.4 1.2 -6 c2.5 -12.8 5.3 -15 17.8 -14.4 20.2 1.1 62.2 20 69.1 31.2 1.5 2.4 2.1 5 2.1 9.3 0 5 -0.5 6.7 -3.4 11.3 l-3.5 5.5 2.7 0.5 c1.7 0.4 2.8 0.1 3 -0.7 0.2 -0.8 1.9 -1.3 4 -1.3z m56.2 -0.6 c4.3 -1.7 4.8 -2.5 2.6 -4.3 -1.8 -1.5 -4 -0.5 -7.5 3.3 -3 3.2 -1.3 3.5 4.9 1z m51 -17.5 c7.6 -2.5 15.3 -7.2 27.2 -16.9 14.6 -11.7 14.6 -11.7 32 -7.5 28.4 6.7 57.9 10.1 75.1 8.5 32.4 -3.1 43.5 -11.3 51 -37.5 4.7 -16.3 9.7 -36.2 9.7 -38.2 0 -1 0.9 -3.6 2 -5.8 1.1 -2.2 2 -4.8 2 -5.8 0 -1.9 0.5 -1.9 13.8 -1.1 7.5 0.5 21.4 0.9 30.7 0.8 16.3 -0.1 17.4 -0.2 26.2 -3.2 41.4 -14.1 72.4 -46.3 82.4 -85.7 5.3 -21 5.2 -36.8 -0.6 -59.5 -6.7 -26.4 -23.2 -51.8 -43.4 -67 -10.5 -7.9 -33.7 -19 -39.7 -19 -2.5 0 -1.2 -13.1 2.5 -25.9 3.8 -12.9 3.9 -16 0.1 -23.9 -6.6 -13.9 -23.9 -27.3 -54.5 -42.3 -38.5 -18.7 -74.5 -28.4 -110.9 -29.6 -17.2 -0.6 -17.8 -0.6 -17.2 1.3 1.7 5.7 3.6 15.4 3.6 19 l0 4.1 11.6 0.7 c55.1 3.1 115.7 25.1 143.2 51.9 13.8 13.5 14.6 28.5 3.7 66.7 -1.8 6.3 -6.1 21.6 -9.5 34 -3.4 12.4 -7.9 28.6 -10 36 -2.1 7.4 -6.1 22.1 -9 32.5 -2.9 10.5 -7 25.1 -9 32.5 -2.1 7.4 -5 18.4 -6.4 24.4 -3.4 14.2 -7.9 27.6 -11 32.4 -4.7 7.5 -10.6 9.1 -17.6 4.7 -2.2 -1.4 -4.6 -2.5 -5.4 -2.5 -1.8 0 -3 3 -1.6 4.4 0.5 0.5 1 2.5 1 4.2 0 4.2 -1.7 5.4 -19.5 13.4 -7.7 3.4 -19.3 8.9 -25.7 12.1 -8.4 4.2 -12.9 5.9 -15.7 5.9 -2.4 0 -10.9 -2.6 -21.8 -6.6 -16.3 -6.1 -36.5 -11.7 -56.7 -15.9 -4.4 -0.9 -15.9 -2.2 -25.5 -3 -20 -1.7 -35.8 -0.7 -44.6 2.6 -2.7 1 -6.5 1.9 -8.4 1.9 l-3.4 0 0.7 -6.5 c0.4 -3.6 3.2 -15.2 6.2 -25.8 3.1 -10.6 6.5 -22.3 7.5 -26.2 1.1 -3.8 2.2 -7.2 2.7 -7.6 2.8 -2.8 45.6 -1.7 65.1 1.7 25.1 4.3 63.3 16.1 87.1 26.7 15.1 6.7 20.6 8.5 22.1 7 2.2 -2.2 -1.3 -5.5 -10.4 -9.8 -18.1 -8.5 -54.8 -21.3 -74.7 -26.1 -18.6 -4.5 -61.1 -9.3 -81.8 -9.4 l-3.4 0 0.4 -4.7 c0.3 -2.7 2.8 -13.6 5.7 -24.3 2.9 -10.7 6.6 -24.2 8.1 -30 l2.8 -10.5 -3 -0.3 c-1.6 -0.2 -3.2 -0.2 -3.4 0.1 -0.4 0.4 -1.7 4.9 -11.8 40.7 -5.7 20.3 -8.1 29.3 -11.6 44.5 -1.2 5 -4.4 17.1 -7.1 27 -2.7 9.9 -6.2 22.5 -7.8 28 l-2.7 10.1 2.8 7.9 c4.1 11.9 3.9 13.2 -4.2 26.2 -5.2 8.2 -7.3 12.7 -8 16.5 -1 5.9 -2.4 35.8 -1.7 35.8 0.2 0 3.5 -1.4 7.3 -3.1 6 -2.7 7.6 -3.1 14 -2.7 8.2 0.4 10.2 1.7 17.1 11.1 1.9 2.6 4.9 5.5 6.6 6.3 6.2 3.3 15.1 3.3 24.7 0.3z m-314.5 -1.3 c12.2 -3.3 21.1 -6.7 33.2 -12.8 10.8 -5.5 11.3 -6.1 11.3 -13.3 0 -6.6 1.9 -11.4 6.2 -16.1 3.4 -3.7 4.7 -4.4 7.8 -4.4 2.1 0 5.6 0.7 7.9 1.5 4.3 1.5 7.6 1.1 6.8 -0.9 -0.3 -0.6 -1.9 -4.7 -3.7 -9.1 -7.1 -18.1 -9.8 -23.6 -17.6 -35.2 -8.9 -13.2 -10.8 -17.6 -10.2 -22.9 0.3 -3 0.1 -3.4 -1.8 -3.4 -1.4 0 -3 -1.2 -4.3 -3.2 -1.4 -2.3 -2.1 -2.7 -2.1 -1.5 0 1.1 -0.8 1.7 -2.1 1.7 -1.9 0 -1.9 0.2 0.9 3.8 5.3 6.7 6.4 9.9 6 16.6 -0.2 4.1 -1 7 -2.3 8.7 -4.3 5.8 -21.8 17 -38.5 24.8 -13.5 6.2 -17.7 7.4 -28.6 7.9 -9.4 0.4 -10.2 0.3 -12.7 -1.9 -1.5 -1.3 -3.8 -5.1 -5.2 -8.4 -2 -5 -2.8 -6.1 -5.1 -6.3 -2.1 -0.3 -2.6 0 -2 1.3 0.3 0.9 0.6 3.2 0.6 5.1 0 2.7 0.4 3.4 2 3.4 2.2 0 5.7 6.3 10.9 19.2 5.5 13.9 10.8 24.3 15.3 30.3 2.5 3.3 5.3 7.6 6.3 9.5 4.4 8.8 6.7 9.4 21 5.6z m-116.2 -2.5 c3.2 -1.1 8.9 -3.6 12.7 -5.7 l7 -3.6 0 -4.8 c0 -2.6 -0.3 -10.1 -0.6 -16.7 l-0.7 -12.1 -4 5.1 c-9.3 11.9 -26.3 25.1 -33.7 26.2 -5.7 0.9 -11 2.5 -11 3.4 0 1.5 5.6 6 10 8 5.7 2.6 13.1 2.7 20.3 0.2z m-158.6 -17.1 c32.5 -2.5 70.9 -13.2 101.6 -28.2 l17.9 -8.8 12.1 0 c14.2 0 22.3 -1.7 27.5 -5.5 2 -1.5 5.9 -4.1 8.6 -5.8 4.8 -3.1 4.8 -3.2 4.2 -7.4 -0.3 -2.4 -1.5 -6.2 -2.7 -8.4 -1.6 -3.2 -1.9 -5.1 -1.4 -8.3 0.4 -2.3 0.9 -8.5 1.1 -13.8 l0.5 -9.8 -8.2 -23.7 c-20.3 -58.9 -25.9 -76.6 -25.9 -81.9 0 -3.9 -0.5 -5.5 -2.1 -7 -2.5 -2.1 -5.9 -9.5 -7.9 -16.7 -1.4 -5.3 -2.5 -6.2 -5.8 -5 -2 0.8 -1.8 1.5 7.4 29.3 5.1 15.7 9.4 30.2 9.4 32.2 l0 3.7 -8.2 0.4 c-28.5 1.6 -43.9 4.1 -66.5 10.9 -29.8 8.9 -80.2 30.5 -86.3 37 -1.8 2 -1.9 2.4 -0.5 3.7 1.3 1.3 3.4 0.6 18.7 -7.1 26.9 -13.4 52 -22.9 79.2 -29.8 21.7 -5.5 34.1 -7.1 53 -6.8 l15.9 0.3 2.2 8 c9.9 35.5 12.5 45.6 12.5 49.4 l0 4.3 -5.7 -0.6 c-19.5 -2.2 -34.2 -1.7 -53.8 2 -13 2.5 -33.8 8.2 -48.4 13.3 -13.7 4.9 -17.6 6.5 -37.6 16.1 -6.5 3.2 -12.8 5.5 -15.5 5.8 -2.5 0.2 -13.6 -1 -24.8 -2.7 -17.5 -2.6 -21.2 -3.5 -26.2 -6.2 -7.6 -4 -8.8 -5.5 -9.7 -11.4 l-0.6 -4.8 7.4 -6.7 c6.4 -5.9 7.2 -6.9 6 -8.3 -1.2 -1.5 -1.6 -1.5 -4.2 -0.2 -1.5 0.8 -4.3 3.1 -6.2 5 -2.8 2.9 -4.1 3.5 -7.4 3.5 l-4.1 0 -4.6 -13.2 c-2.5 -7.3 -7.7 -22.7 -11.7 -34.3 -3.9 -11.5 -13.6 -40.1 -21.6 -63.5 -27.6 -81.3 -32.5 -95.5 -34.4 -102 -2.8 -9.6 -2.7 -29.7 0.2 -35.7 4.6 -9.5 16.8 -20.1 37.9 -32.8 28.3 -17.1 54.3 -26.4 86.8 -31.1 13.5 -1.9 16.3 -2.8 19.4 -6.2 3.1 -3.3 14 -21.3 13.3 -22 -0.2 -0.3 -6.9 0.1 -14.7 0.8 -40.5 3.4 -82.6 17.8 -118.8 40.5 -26.2 16.5 -40.2 30.9 -42.4 43.5 -0.6 3.8 -0.5 4.5 4.8 23.6 5.1 18.7 5.1 18.5 -3.4 21.8 -14.2 5.6 -30.9 17.2 -42.1 29.4 -28.4 30.9 -38.5 74.4 -25.8 111.7 10.5 30.7 32.8 56.3 61.9 71 22.3 11.2 43.2 13.9 70 8.8 5.2 -0.9 12 -1.8 15 -1.8 5.4 0 5.5 0.1 7.6 4.1 1.2 2.2 3.5 9.1 5.3 15.2 3.6 13.1 11.3 34.7 14.7 41.5 3.2 6.1 8.6 12.2 13.8 15.2 6.4 3.7 10.7 4.6 28.6 6.4 0.8 0 7.4 -0.4 14.7 -0.9z m233 -88.5 c14.4 -5.1 24.1 -10.2 37.5 -19.6 6.1 -4.4 11.9 -7.9 13 -7.9 1.6 0 1.1 -1 -2.7 -5.7 -4.9 -6 -8.5 -12.2 -8.5 -14.8 0 -0.8 -0.6 -1.5 -1.3 -1.5 -1.4 0 -10 -18.1 -18.2 -38.1 l-5.2 -12.6 -2.5 1.3 c-1.5 0.8 -8.2 3.4 -15 5.9 -13.7 5.1 -20.6 8.7 -28.8 15 -8.6 6.5 -13.7 9.5 -16.6 9.5 l-2.6 0 1.8 2.8 c12.5 18.8 26.4 43.3 26.4 46.4 0 0.9 0.6 1.8 1.4 2.1 1.5 0.6 7.6 18.1 7.6 21.8 0 1.8 0.2 1.9 1.4 0.6 0.8 -0.8 6.3 -3.1 12.3 -5.2z m-58.4 -53.1 c-4.9 -14.3 -5.7 -22.4 -2.4 -22.4 1.7 0 1.5 -0.8 -2 -7.6 -3.5 -6.7 -3.9 -8.3 -3.9 -14.9 0 -6.6 0.3 -7.7 2.7 -10.6 7.7 -9.2 33.1 -23.9 44.8 -26 7.7 -1.4 16.1 -0.4 20.3 2.4 2.3 1.5 4.5 4.6 7 9.9 l3.7 7.7 4.2 0.1 c3.7 0 4.5 0.5 8.1 4.8 2.1 2.6 6.1 8 8.7 12 2.6 3.9 4.9 7.2 5.1 7.2 0.6 0 -3.8 -11.3 -7.6 -19.6 -5.6 -12.1 -23.1 -37.5 -28.9 -41.9 -3.9 -3 -10.7 -2.5 -23.6 1.9 -21.9 7.4 -44.4 20.2 -55.5 31.6 -7.8 7.9 -8.7 10.4 -6.5 18.3 2.1 7.4 9.4 26.6 12.5 32.8 1.8 3.6 16.9 26.9 17.5 26.9 0.1 0 -1.8 -5.7 -4.2 -12.6z m-244.5 -0.6 c-0.5 -2.4 -2.7 -9.5 -5 -15.8 -4.4 -12.5 -10.8 -30.8 -28 -80.5 -6.1 -17.6 -12.6 -36.5 -14.6 -42 -3.2 -9 -3.6 -11.1 -3.6 -20.5 -0.1 -12.2 1.1 -15.4 7.1 -19.2 3.2 -1.9 5.1 -2.3 11.8 -2.3 10.1 0 13.8 1.9 17.8 9.3 4.8 8.8 23.6 62.1 42.2 119.4 4.7 14.4 9.2 26.9 10 27.7 1.3 1.4 1.5 1.3 1.5 -0.1 0 -4 -11.1 -38.4 -25.3 -78.3 -4.1 -11.5 -10.5 -30 -14.2 -41 -8.2 -24.5 -9.8 -27.8 -15.3 -33.3 -10.5 -10.5 -21.2 -10.7 -32.9 -0.7 -5.6 4.8 -7.8 10.6 -7 18.9 0.7 7 1 8 20.7 65.6 24.2 70.8 26 76.3 28.4 84.2 2.2 7.6 4.9 12.8 6.5 12.8 0.5 0 0.5 -1.9 -0.1 -4.2z m849.6 -4.6 c1.5 -4.9 7 -24.9 15.6 -56.7 2.8 -10.4 6.9 -25.1 9 -32.5 7 -24.3 13.9 -49.3 17.1 -61.8 3.6 -14.2 3.4 -17.8 -1.2 -27.1 -6.2 -12.4 -19.1 -17.2 -30.7 -11.2 -8.7 4.5 -14 13 -18.6 29.6 -1.4 5 -4.6 16.7 -7.1 26 -2.6 9.4 -6.6 23.5 -9 31.5 -9.5 32.1 -18.8 67.3 -20.9 78.8 -0.6 3.5 0.7 4.3 2.4 1.3 0.5 -1.1 3.3 -10.4 6 -20.8 2.8 -10.3 6.4 -23.3 8 -28.8 3.1 -10.7 9.4 -33.5 18.5 -66.5 9.9 -35.8 11.3 -40 14.9 -43.6 8.6 -8.6 28.5 -6.3 33.7 3.8 1.5 2.8 1.9 5.9 1.9 12.8 0 9.7 -1.4 16.7 -7.5 36.5 -1.9 6.1 -5.9 20.2 -9 31.5 -3.1 11.3 -7.6 27.5 -10 36 -18.4 64.7 -19.6 70 -16.1 67 0.8 -0.6 2.2 -3.3 3 -5.8z m-789.5 -35.9 c-1.3 -7 -8.9 -30.6 -16.9 -52.9 -9.7 -26.7 -31 -88.9 -32.2 -93.9 -1.5 -6.1 -0.4 -15.8 2.1 -19.4 2.9 -4.1 9.7 -7.9 15.2 -8.7 10.9 -1.5 18.6 4.1 23.8 17.3 3.2 8.2 3.9 7.9 2 -0.9 -1.9 -8.7 -6.4 -13.9 -15.5 -17.9 -6.1 -2.7 -10.1 -2.6 -16.6 0.4 -6.8 3.1 -12.1 8.4 -14.4 14.3 -2.8 7.3 -2.7 7.5 22.6 81.4 7.8 22.8 17.1 50.3 20.7 61 5.6 17 8.4 24 9.7 24 0.2 0 -0.1 -2.1 -0.5 -4.7z m726.5 -10 c1.3 -4.8 5.8 -20.5 9.9 -34.8 7.1 -24.9 13 -46 21.6 -77.5 6.4 -23.4 10 -40.8 9.1 -43.9 -2.9 -10.2 -10.9 -18.2 -21.3 -21.2 -4.2 -1.2 -14.4 2.3 -19.5 6.7 -7.4 6.3 -6.8 4.7 -26.7 76.9 -2.6 9.4 -6.7 24 -9.1 32.5 -18 64.5 -17.5 62.5 -15.3 61.8 0.7 -0.2 1.6 -1.5 2 -2.9 0.4 -1.3 3.5 -12.3 6.9 -24.4 3.4 -12.1 7.9 -28.1 10 -35.5 2.2 -7.4 8.5 -29.7 14 -49.5 15 -53.4 14.7 -52.4 18.4 -56.1 4 -4 10.3 -5.8 17.9 -5.1 7.1 0.6 12.5 3.3 15.5 7.7 1.9 2.8 2.2 4.6 2.2 12.1 0 10.7 -1.8 20.3 -6.9 37.3 -2.2 7.2 -6.1 20.8 -8.6 30.1 -2.6 9.4 -6.8 24.7 -9.5 34 -2.6 9.4 -6 21.5 -7.5 27 -1.5 5.5 -4.5 15.8 -6.6 22.9 -3 10.1 -3.6 13.2 -2.7 14.3 1.6 2 3.1 -1.1 6.2 -12.4z m-121.5 -12 c1.2 -4.8 3.6 -13.3 5.2 -18.7 1.6 -5.5 2.8 -10.1 2.6 -10.3 -0.3 -0.2 -1.4 0.4 -2.5 1.4 -1.4 1.2 -3.2 5.5 -5.1 12.3 -5.3 18.7 -7.1 26.2 -6.4 27.3 1.3 2.1 4.1 -3.3 6.2 -12z m-561.3 6.4 c-12.1 -38.1 -26.6 -77.1 -28.1 -75.5 -0.3 0.2 0.8 4.2 2.4 8.9 1.6 4.6 7.7 22.3 13.5 39.2 5.8 16.9 10.8 31.2 11.1 31.8 1.6 2.4 2.3 -0.6 1.1 -4.4z m608.7 -1.4 c2.4 -5.6 8.7 -26.8 8.7 -29.7 0 -0.7 1.5 -6.5 3.4 -12.7 1.9 -6.3 6.4 -22.6 10.1 -36.4 3.7 -13.7 8 -29.3 9.5 -34.5 4.8 -15.9 9 -33.7 9 -38 0 -7.6 -2 -13 -6.7 -17.8 -3.5 -3.7 -4.6 -4.3 -5.6 -3.3 -0.9 1 -0.7 1.7 1.3 3.4 5.9 5.2 7 7.5 7 15.4 0 7.6 -2.1 17.4 -8.4 39.8 -1.9 6.6 -6.4 22.6 -10.1 35.5 -3.6 12.9 -7.5 26.2 -8.5 29.5 -3.2 10.4 -12.1 44.2 -12.9 49.5 -0.4 2.7 -0.5 5 -0.1 5 0.4 0 1.9 -2.6 3.3 -5.7z m-584.4 -4.4 c-1.1 -4 -2.4 -7.9 -2.8 -8.8 -0.5 -0.9 -2.8 -7.2 -5.1 -14.1 -3.5 -10.6 -7.4 -18 -8.7 -16.6 -0.2 0.2 1.1 4.3 2.8 9.2 1.7 4.9 4.8 14.3 7 20.9 4 11.9 6.1 16.5 7.9 16.5 0.5 0 0 -3.2 -1.1 -7.1z m49.5 3.9 c-7.4 -24 -11 -32.5 -12.9 -30.6 -1 0.9 6.1 22.2 9.2 28 2.7 5 5 6.5 3.7 2.6z m473.1 -70.4 c3.3 -0.8 8.9 -2.9 12.5 -4.6 13.2 -6.4 25.6 -23.1 22.8 -30.7 l-0.9 -2.5 -1.5 2.2 c-1.3 1.8 -2.5 2.2 -7.4 2.2 -4 0 -6.4 -0.5 -7.4 -1.6 -2.4 -2.3 -2 -8.7 1.4 -20.4 3.8 -13.4 3.8 -16.3 -0.3 -24.1 -5.4 -10.5 -15.1 -16.3 -32.8 -19.6 -8.7 -1.7 -8.9 -1.8 -8.9 -4.5 0 -3.4 8.5 -24.8 11.2 -28.3 1.5 -1.9 2.9 -2.5 5.9 -2.5 3.8 0 3.9 0 7.5 7.5 4.2 9 8.3 12.4 17.9 15 17.4 4.8 34.5 -6.3 39.6 -25.7 1.5 -5.4 0.5 -10.7 -3.2 -18.5 -4.7 -9.7 -17.6 -18.2 -31.3 -20.6 -8.4 -1.4 -18.2 0.7 -28.2 6.3 -13.6 7.5 -22.3 19.1 -31.2 41.3 -7.3 18.4 -9 19.8 -25.4 20.5 l-10.8 0.5 0 -4.3 c0 -5.8 1.8 -12.4 12 -44 15.6 -48.4 19.9 -65.2 18.5 -72.6 -1.6 -8.8 -13.3 -17 -27.7 -19.4 -19.6 -3.3 -53.4 4.6 -63.2 14.9 l-2.9 3.1 6.3 6.5 6.3 6.6 -0.6 6.2 c-0.3 3.4 -3.1 14.5 -6.2 24.7 -3.2 10.2 -7 23 -8.6 28.5 -1.6 5.5 -4 13.4 -5.3 17.5 -1.4 4.1 -5.2 16.7 -8.6 28 -3.4 11.3 -7.7 25.2 -9.6 31 -1.8 5.8 -4.2 13.7 -5.3 17.5 -5.2 19 -10.6 35.5 -13 39.9 -1.8 3.5 -4.6 6.4 -9.4 9.9 -9.1 6.6 -9.8 8 -4.6 10.1 8.1 3.3 17.7 3.9 53.9 3.8 36.9 -0.2 44 -0.8 48.4 -4.3 3.5 -2.8 3.3 -4.3 -1.4 -8.9 l-4 -3.9 0 -8.4 c0 -6.3 0.8 -11.1 3.1 -19.3 1.7 -6 4.1 -15.2 5.5 -20.4 1.4 -5.2 3.8 -12.4 5.4 -15.9 l3 -6.3 8.8 0.4 c4.8 0.3 9.9 1.1 11.5 1.8 2.6 1.3 2.7 1.5 2.7 10.2 0 6.5 -0.6 10.4 -2.1 14.6 -1.1 3.1 -3.2 8.9 -4.6 12.7 -3.6 9.6 -3.6 18.1 -0.1 25.5 8.9 19.1 35.7 28.8 62.3 22.4z m-463.4 -0.8 c28.7 -4.7 54.7 -21.1 64.3 -40.6 3.8 -7.9 5.7 -15 3.8 -15 -0.6 0 -6.6 2.1 -13.4 4.7 l-12.3 4.8 -18 0 c-17.3 0 -18.2 -0.1 -23.5 -2.6 -7.9 -3.7 -12.5 -8.2 -16 -15.3 -5.8 -12.3 -6.4 -30.1 -1.5 -47.1 3.4 -11.7 6.6 -17.5 14.4 -25.7 7.9 -8.4 20 -15.1 26.6 -14.6 l4 0.3 0.5 11.5 c0.6 13.6 2.7 19.4 9.3 25.7 5.8 5.6 11.9 7.7 20.4 7.1 13.4 -1.1 25.6 -8.4 30.2 -18.3 3.6 -7.6 3 -14 -2.2 -23.8 -8.2 -15.6 -29.8 -26.5 -55.8 -28.2 -39 -2.6 -75.3 12.2 -98.7 40.2 -26.3 31.4 -32 71.5 -14.2 101.3 5.6 9.5 12 16.2 21.3 22.4 9.2 6 21.3 10.7 32.7 12.6 4.1 0.6 8.2 1.3 9 1.5 3.8 0.7 11.2 0.4 19.1 -0.9z m201.6 -1.9 c17.1 -4.6 29.3 -11.7 40.7 -23.7 7.8 -8.3 12.6 -17.3 12.6 -23.6 l0 -4.2 -11.2 2.9 c-20.4 5.2 -27.7 6.3 -41.3 6.3 -16.6 0.1 -21.5 -1.4 -27.8 -8.4 -5.1 -5.7 -7.7 -13.3 -7.7 -22.7 l0 -6 20.8 0.5 c31.6 0.7 50 -2 66.9 -9.8 14.6 -6.8 23.7 -18 26.9 -32.9 1.6 -8.1 0.8 -14.2 -3.3 -22.9 -12.6 -26.9 -68.6 -39.8 -111 -25.7 -35.5 11.8 -56.8 33.1 -67.2 67 -4.1 13.7 -5.4 21.2 -5.4 33.5 -0.1 35.2 23.6 62.3 61.3 70.4 4.1 0.8 8.6 1.7 10 2 6.5 1.2 26.8 -0.3 35.7 -2.7z m-157.3 -193.1 c5.5 -2.4 17.1 -7.2 25.6 -10.6 28.8 -11.5 41.9 -20 45.5 -29.5 1.7 -4.3 1.7 -4.5 -0.5 -8.9 -4 -8.3 -13.4 -11.7 -24.8 -9.1 -11.1 2.6 -15 5.8 -30.4 25 -6.3 7.8 -6.6 8 -10.8 8 l-4.4 0 -2.1 -8.5 c-1.2 -4.7 -2.9 -10.1 -3.7 -12.1 -4.1 -9.6 -15.2 -15.2 -25.4 -13 -6.7 1.5 -12.5 5.8 -16 11.6 -6.8 11.8 -0.4 23.1 24.5 43.1 5.8 4.6 10.9 8.4 11.4 8.4 0.5 0 5.5 -2 11.1 -4.4z m-122.4 -27.2 c10.2 -2.6 24.1 -9.5 27.6 -13.8 4.4 -5.2 10.2 -22.6 7.7 -22.6 -2.8 -0.1 -14.8 -3.2 -15.9 -4.1 -2.6 -2.2 -1.8 -18.4 1.7 -33.3 3.4 -14.2 3.4 -18.5 0.1 -26 -3.3 -7.4 -7.5 -11.1 -17.2 -15.2 -9 -3.8 -9 -3.8 -9 -7.5 l0 -3.6 9.3 -2.8 c24.2 -7.2 37.2 -18.6 46.6 -40.7 2.2 -5.5 2.6 -7.7 2.6 -16.9 0 -10.4 -0.1 -10.7 -4.2 -19 -5.1 -10.3 -10.4 -16.5 -19.5 -22.9 -14 -9.8 -28.9 -14 -57.8 -16.1 -18.6 -1.3 -122 -0.4 -132.2 1.2 -7.2 1.1 -11.8 3.8 -11.8 6.9 0 1 1.4 4.8 3.1 8.4 3.1 6.6 3.1 6.9 2.6 18.9 -0.2 7.1 -1.1 14.1 -2 16.7 -1.4 4 -5.5 17.9 -17.2 58.5 -1.9 6.6 -4.4 15.6 -5.6 20 -1.1 4.4 -3.3 12.3 -4.9 17.5 -2.7 9.2 -8.8 31.3 -13.4 49 -2.3 8.7 -6.4 17.9 -9.4 21.4 -0.9 1 -5 4.3 -8.9 7.3 -11 8.2 -11.8 11.4 -3.5 15.5 l4.7 2.3 53.5 0 53.5 0 4.7 -2.3 c7.6 -3.8 7.6 -7.7 0 -13.4 -7.4 -5.5 -8.5 -8.7 -7.9 -23.2 0.4 -10.1 1 -14 4 -23.6 3.1 -10.1 9.4 -33.3 11.3 -41.4 l0.7 -2.8 15.6 0.4 c17.4 0.5 23.3 2.1 26.8 7.4 3.1 4.7 2.4 19 -1.7 35.4 -4.4 18.1 -5.2 32.9 -2.1 41.1 5 13.1 18.7 21.9 39.6 25.3 5.4 0.8 21.8 -0.3 28.5 -2z m-378.5 -1.5 c6.7 -1.3 12.9 -4.9 13.3 -7.7 0.3 -1.6 -1.4 -3.8 -6.1 -8.4 -3.6 -3.5 -7 -7.3 -7.6 -8.5 -3 -5.9 -0.5 -23.5 6.5 -46.8 4.2 -13.7 5.5 -16.4 8.5 -17 1.6 -0.4 15.6 -0.8 31.1 -1 30.3 -0.4 38.7 -1.3 55 -6 12.8 -3.7 29.9 -12.2 38 -18.9 22.9 -19 37.1 -50.2 33.7 -74.3 -3.7 -26.9 -22.1 -44.3 -54.4 -51.6 -8.5 -1.9 -13 -2.1 -78.5 -2.4 -60 -0.4 -70.5 -0.2 -76.9 1.1 -7.8 1.6 -12.1 4.4 -12.1 7.8 0 1 1.2 4.2 2.7 7.1 2.2 4.3 2.8 6.9 3.1 14.8 0.5 11.1 -0.2 15 -6.2 34.9 -2.5 8 -8.1 27.6 -12.7 43.5 -4.5 16 -9.9 35.1 -12 42.5 -2.1 7.4 -5.5 19.6 -7.5 27 -1.9 7.4 -5.2 18.5 -7.1 24.5 -3.2 9.6 -4.2 11.6 -8.2 15.5 -2.6 2.5 -6.9 6.1 -9.6 8 -2.7 1.9 -5.6 4.8 -6.5 6.3 -1.4 2.7 -1.4 2.9 1.3 5.2 2.9 2.6 7.9 4.3 16.2 5.5 6.9 1 89.8 0.1 96 -1.1z m739.3 -0.4 c4.8 -1.5 5.2 -1.9 6.3 -5.7 0.9 -3.6 0.8 -5.4 -1 -11.9 -4.1 -15 -3.7 -17 17.9 -91.4 2.8 -9.4 5 -17.4 5 -17.9 0 -0.4 0.7 -3.2 1.6 -6.2 1.5 -5.1 1.7 -5.4 4.8 -5.4 l3.3 0 3.3 10.8 c1.8 5.9 6.9 22 11.3 35.7 4.3 13.8 8.4 26.6 8.9 28.6 1.1 4.2 0.4 4.2 19.8 1.1 6.8 -1.1 16.5 -1.6 27.5 -1.6 18.3 0 23.8 0.9 36.3 6.1 3.5 1.4 6.7 2.2 7.1 1.7 2.5 -2.9 16.2 -20 32.6 -40.4 33.9 -42.3 36.3 -45 40.1 -45 3.3 0 3.4 0.1 3.4 4.3 0 4.1 -3.5 17.6 -12.5 49.2 -2.4 8.3 -6.4 22.3 -8.9 31.2 -7.9 27.8 -10.4 32.7 -20.1 38.4 l-5.6 3.4 0.6 5.8 c0.8 7.9 1.1 8.4 5.3 9.1 7.6 1.2 56.5 1.7 76.7 0.8 17.9 -0.7 21.7 -1.2 25.8 -3 2.6 -1.1 5 -2.8 5.4 -3.7 0.3 -0.9 -1.1 -5.7 -3.1 -10.6 -5.1 -12.5 -4.9 -16.8 1.3 -38.4 2.7 -9.3 9 -31.6 14.1 -49.5 5 -17.9 11.1 -39.5 13.5 -48 2.4 -8.5 7.1 -25.1 10.5 -36.8 3.3 -11.7 6.7 -22.6 7.5 -24.1 1.7 -3.3 6.5 -7.7 13.3 -12.2 5.2 -3.4 8.2 -7.3 8.2 -10.8 0 -3.1 -7.9 -4.9 -26 -6 -18.6 -1.1 -51.2 0.2 -58.9 2.3 -6.3 1.7 -14.7 7.1 -20.5 13.1 -2.3 2.3 -8.9 10.2 -14.6 17.5 -29.1 37 -74.7 93.6 -81.9 101.8 -7.4 8.2 -8.6 9.2 -11.6 9.2 -3 0 -3.7 -0.5 -4.8 -3.2 -1.9 -4.7 -10.7 -33.5 -16.2 -52.8 -20.5 -72.7 -23.8 -81.4 -32.4 -85.4 -4.4 -2 -6 -2.1 -36.6 -2.1 -27.8 0 -32.7 0.2 -37.7 1.8 -3.6 1.1 -6.4 2.6 -7.3 4.1 -1.5 2.2 -1.3 3 1.6 11.7 4.1 12 5 24.9 2.5 36 -1.6 6.8 -8.3 30 -14.2 49.4 -1.4 4.4 -3.4 11.4 -4.5 15.5 -1.1 4.1 -3.7 13.6 -5.9 21 -7.8 27.1 -11.9 41.7 -14 50.5 -5.1 20.7 -9 27.3 -21 35.5 -6.3 4.3 -9.5 8.8 -8.5 12 0.6 1.9 6.7 4.7 12 5.3 1.7 0.2 10.2 0.5 19.1 0.6 11.8 0.1 17.4 -0.3 21.2 -1.4z m451.7 -1.5 c7.2 -3.6 7.9 -6.3 3.5 -13.2 -3.2 -4.9 -3.5 -6 -3.8 -15 -0.4 -10.6 0.8 -16.6 8.8 -43.3 2.1 -7.1 6.2 -21.5 9 -32 11.7 -43.2 25.4 -90.4 29.7 -102 3.1 -8.3 3.3 -8.7 14.5 -18.1 4.8 -4.1 9 -8.3 9.3 -9.5 0.9 -2.7 -0.9 -4.6 -5.4 -5.9 -6.4 -1.8 -56 -3.1 -80.8 -2.1 -23.8 1 -27.9 1.7 -31.6 5.8 -1.7 1.9 -1.6 2.3 1.8 11.1 5.5 14.4 4.8 22.6 -4.5 53.2 -2.1 6.9 -6.4 21.7 -9.5 33 -10.8 39.2 -24.7 87.6 -28.2 98 -4.9 14.8 -7 18 -15.3 23.5 -11.2 7.4 -13.3 11.7 -8 15.7 3.9 2.9 17.4 3.6 64 3.4 l41.5 -0.1 5 -2.5z m-559.5 -22.1 c12.7 -9.3 32.5 -29.6 39.9 -40.9 12.4 -18.7 23 -44.1 29.3 -69.8 1.8 -7.2 2.2 -11.9 2.2 -27.2 0.1 -19.5 -0.6 -24.1 -5 -35 -6.5 -16.1 -18.6 -29.9 -33.4 -38.3 -10 -5.6 -26.2 -11 -37.9 -12.7 -13.1 -2 -36.2 -0.8 -49.6 2.4 -54.8 13.1 -89.8 39.9 -113.9 87.1 -13.3 26.3 -19.8 51.3 -20 77.2 -0.1 8.3 0.1 15.4 0.4 15.7 0.3 0.3 4.2 -0.6 8.5 -2.1 6.3 -2 10.7 -2.7 20.5 -3 15.6 -0.6 22.4 0.5 32.3 5.7 l7.8 4 5.5 -2.7 c2.9 -1.4 6.1 -3.4 6.9 -4.3 1.9 -2.1 4.5 -10.9 8.5 -29 7.2 -32.1 18.6 -68 27.5 -86.5 12.4 -26 22.9 -35 40.5 -34.9 13.3 0 17.2 5.6 17.8 25.4 0.7 22.6 -6.5 54.7 -23.7 104.9 l-8 23.4 9.8 9.6 c8.2 8 10.2 10.6 12 15.3 2.3 6.4 4.1 16.1 4.1 22.6 l0 4.2 4.8 -2.4 c2.6 -1.3 8.6 -5.2 13.2 -8.7z m303.1 -202.2 l5.7 -7.2 -6.2 -6 c-4.7 -4.5 -6.8 -7.4 -8.4 -11.7 -2.8 -7.5 -6.8 -21.9 -8.7 -31 -0.8 -4 -3.5 -14.9 -5.9 -24.3 -6.9 -26.3 -12.7 -49.4 -14.1 -55.5 -0.7 -3 -6.7 -27.1 -13.5 -53.5 -13 -51.3 -16 -63.7 -16 -67 0 -2.1 0.4 -2.1 17.8 -2.2 42.9 -0.3 71.8 -5.7 117.3 -21.8 25.7 -9.1 34.3 -13.1 34.7 -16.2 0.6 -4.1 -3 -3.6 -17 2.2 -14.2 6.1 -34.6 13.1 -49.3 17.1 -12.5 3.4 -41 9 -53 10.5 -11.1 1.3 -46.1 1.5 -51.4 0.2 -3.2 -0.8 -3.6 -1.3 -4.7 -5.8 -0.6 -2.8 -3.7 -15.4 -6.8 -28 -3.1 -12.7 -5.6 -25.2 -5.6 -27.8 0 -4.6 0 -4.7 3.3 -4.7 1.7 0 8.4 1.2 14.7 2.7 10.1 2.4 13.5 2.7 28 2.7 17.2 0 22.4 -0.7 51.6 -6.4 16.3 -3.2 35.5 -9 50.1 -15.1 20.4 -8.4 24 -8.5 51.5 -2 18.9 4.5 24.5 6.8 28.8 11.7 2.5 2.9 3 4.3 3 8.8 0 4.9 -0.3 5.7 -3.6 8.5 -1.9 1.8 -5.3 4.3 -7.5 5.6 -4.1 2.6 -5 4.9 -2.3 5.9 2.9 1.1 4.2 0.6 9.2 -3.9 6.2 -5.6 10.3 -6.1 12.7 -1.5 1.4 2.7 7.2 23.6 10 36 0.7 3 3.6 14.5 6.5 25.5 6.2 24 27.3 107 30.6 120.9 1.4 5.4 4 15.1 5.9 21.5 4.5 15.3 5.5 21.6 5.5 33 0 7.8 -0.5 10.7 -2.4 15.4 -2.1 4.9 -2.2 5.7 -0.8 5.3 1 -0.2 4.4 -0.7 7.7 -1.1 9.4 -1 9.8 -1.2 9.1 -4.9 -0.3 -1.7 -1.5 -6.4 -2.6 -10.5 -2.6 -9.6 -2.7 -17.9 -0.2 -18.8 6.6 -2.2 27.5 -11.9 34.4 -16 10.2 -5.9 25.3 -20.5 32.6 -31.5 14.3 -21.3 22.3 -45.5 22.5 -67.3 0.3 -43.9 -27.6 -87.7 -68.8 -108.3 -12.4 -6.1 -36 -12.2 -47.4 -12.2 -2.5 0 -10 0.7 -16.6 1.5 -18.2 2.2 -19.1 2.1 -21.2 -1.7 -0.9 -1.8 -2 -5.8 -2.3 -8.8 -1.2 -9.6 -11.1 -46.2 -14.6 -53.9 -5.8 -12.5 -14 -18.4 -30.9 -22 -4.9 -1.1 -13.7 -2.3 -19.5 -2.7 -18.7 -1.2 -52.6 2.9 -78.8 9.5 -16.8 4.2 -22.2 6.1 -39.2 13.2 l-10.5 4.4 -15.7 -0.3 c-9.6 -0.2 -17.5 0.2 -20 0.8 -10.2 2.8 -21.8 11 -21.8 15.5 0 1.2 0.9 4.8 2 8 2.7 7.7 2.5 12.9 -0.5 19 -3.6 7.4 -3.3 11.3 2.8 35 1.4 5.5 4 15.9 5.8 23 1.7 7.2 3.8 14 4.5 15.2 0.8 1.2 1.4 3.4 1.4 4.9 0 2.6 8.1 36.9 16.6 69.9 2.5 9.9 6.7 26.6 9.4 37 2.7 10.5 7.8 30.5 11.5 44.5 13.4 51.6 16.8 64.7 18.6 72.8 5.6 25 13.7 51.3 15.8 51.2 0.3 -0.1 3.1 -3.3 6.2 -7.3z m-474.6 -21.4 c0.3 -2.7 2.2 -12.2 4.2 -21.3 1.9 -9.1 4.3 -20.8 5.3 -26 2.1 -11.5 18.6 -94.1 23.5 -117 1.9 -9.1 3.7 -18.3 4.1 -20.5 0.3 -2.2 2.5 -13.4 4.9 -25 2.4 -11.5 5.1 -25.3 6 -30.5 1 -5.2 2.8 -13.3 4.1 -18 1.3 -4.7 3 -12.3 3.8 -17 0.8 -4.7 2.9 -15.2 4.6 -23.5 3.6 -17.2 3.6 -20.3 -0.9 -29.8 -4.4 -9.6 -4.1 -12.1 2.6 -25.9 5.8 -11.6 5.8 -11.7 9.4 -11.7 2.5 -0.1 3.9 0.4 4.3 1.5 1.9 4.9 2.8 30.3 2.4 66.4 -0.2 21.7 -0.2 36.7 0 33.3 l0.3 -6.3 9.3 0 c15.7 0 23.2 3.8 28 14 2.1 4.5 2.1 5.3 2.4 109.1 l0.2 104.7 3.8 0.4 c2 0.3 10.2 0.1 18.2 -0.4 25.9 -1.5 44.6 0.7 66.5 8 l11 3.7 26.5 0 c26.2 -0.1 26.6 -0.1 35.5 -2.9 8.1 -2.6 10.9 -2.9 26.8 -3.4 16.8 -0.4 17.8 -0.6 18.9 -2.6 0.8 -1.5 1.2 -30.4 1.2 -106.1 0.1 -116.2 -0.4 -108.5 7.2 -117.3 4.6 -5.4 10.1 -7.2 22.5 -7.2 9.3 0 9.8 0.1 10.2 2.3 0.2 1.2 0.5 -13.8 0.7 -33.3 0.2 -38.3 1.2 -74 2.9 -105 2.4 -45.2 3.1 -58.7 3.1 -62.7 0 -4.2 0.1 -4.3 3.5 -4.3 l3.5 0 0 5.3 c0 3 0.2 5.6 0.5 5.9 0.6 0.6 9.8 -0.6 15.2 -2.1 4.1 -1.1 11.3 -6.8 11.3 -8.9 0 -2.3 -6.3 -8.1 -10.5 -9.8 -6.8 -2.6 -15.5 -0.2 -15.5 4.3 0 0.8 -1.3 1.3 -3.6 1.3 l-3.7 0 0.7 -6.8 c0.3 -3.7 0.9 -14.6 1.2 -24.2 0.5 -14 0.3 -19 -1 -24.9 -4.6 -21.7 -17.1 -34.4 -39.3 -40.2 -7.6 -2 -10.3 -2 -114.1 -1.9 -63.3 0 -108.4 0.5 -111.5 1 -6.5 1.2 -18 6.8 -23.2 11.3 -5.1 4.4 -11.1 13.1 -14 20.4 -3.9 9.5 -4.6 19.7 -3 39 0.8 9.2 1.5 19.3 1.5 22.3 0 5.4 -0.1 5.7 -4.6 9.4 -4.1 3.4 -7.4 8.6 -7.4 11.5 0 0.5 3.1 2 6.8 3.2 l6.8 2.2 1.1 16.6 c1.5 21.5 0.1 32.1 -3.9 32.1 -0.6 0 -4.6 1.8 -9 4 -6.8 3.4 -9 4 -14.2 4 -7.2 0 -8.6 -0.9 -17 -9.7 -3.5 -3.7 -7.3 -6.7 -9.4 -7.4 -8.4 -2.8 -22.2 1 -35.5 9.8 -6.5 4.3 -22.7 19.6 -22.7 21.4 0 1.7 -15.6 0.8 -30.5 -1.7 -28.2 -4.7 -57.6 -4.4 -79 1.1 -16.1 4.1 -25.1 10 -30.2 19.9 -2.7 5.3 -8.2 27.5 -11.4 46.1 -1.1 6.6 -2.7 14.9 -3.5 18.5 l-1.5 6.6 -24.2 0 c-23.4 -0.1 -24.5 0 -34.1 2.7 -16.6 4.7 -31.7 12.8 -46.6 25.2 -37.1 30.9 -52.2 82.6 -37.4 127.3 2.8 8.5 10.2 23 15.6 30.9 14.4 21.1 41.3 41.2 63.3 47.3 4.4 1.2 9.3 2.9 10.9 3.7 2.8 1.5 2.9 1.5 2.2 8.1 -0.4 3.7 -0.9 7.7 -1.3 9 -0.5 2.1 -0.2 2.2 5 2.2 l5.5 0 1.2 -11.7 c0.6 -6.5 1.6 -14.7 2.1 -18.3 2.3 -15.8 13.2 -71.6 22.4 -114 7 -33 13.2 -62.6 15.8 -76.2 2.9 -14.7 5.5 -20.9 10.1 -23.8 4.4 -2.7 7.8 -2.5 13 0.5 4.2 2.4 4.3 2.5 6 0.6 1.5 -1.6 1.5 -1.9 0.1 -3.1 -0.9 -0.8 -1.5 -2.9 -1.5 -5.6 l0 -4.3 14.4 -7 c8 -3.8 18.4 -9.5 23.2 -12.8 18.2 -12.3 19.1 -12.4 39.6 -5.8 44.9 14.4 90.4 17.5 125.7 8.5 4.3 -1.1 9.5 -2 11.5 -2 3.2 0 3.6 0.3 4.2 3.5 0.9 5.2 -1.1 20.2 -5.1 36.3 -1.9 7.8 -3.8 16.7 -4.1 19.7 -0.4 3 -1.2 5.9 -1.8 6.4 -2.3 1.9 -44.1 3.5 -60.4 2.2 -32.7 -2.4 -66.4 -10.1 -103.6 -23.4 -10.1 -3.7 -12.6 -3.7 -12.6 0 0 3.1 26.5 13.2 53 20.2 35.2 9.3 55.6 11.6 93.8 10.8 l26.2 -0.6 0 4.2 c0 10.7 -9.1 57.7 -26.5 137.2 -3.3 15.2 -8.1 38.1 -16.2 77.7 l-3.7 17.8 2.9 3 c1.6 1.6 3.2 3 3.6 3 0.4 0 1 -2.1 1.4 -4.7z m507.1 -18.3 c6.7 -3.3 14.8 -11.7 16.7 -17.4 0.9 -2.7 1.7 -5.9 1.7 -7.1 0 -3.1 -4.4 -22.3 -7.5 -32.5 -1.4 -4.6 -7.5 -28.5 -13.6 -53 -13.7 -54.8 -16.7 -65.8 -18.6 -68.9 -3.4 -5.4 -2.7 0.9 2.3 20.7 8.6 34.1 19 74.6 23.9 93.7 7.3 28 7.8 30.3 7.9 41 0.1 11.8 -1.4 15.4 -7.9 18.5 -5.8 2.8 -19.6 2.8 -24.2 0.1 -6.5 -4 -7.9 -7.8 -18.7 -51.6 -5.3 -21.7 -20.5 -81.5 -28.6 -113 -2.4 -9.7 -3.9 -13.5 -5.2 -13.5 -1.1 0 -1.1 0.1 4.3 24 3.7 16.3 13.2 54.4 21.9 88 2.1 8 5.9 22.6 8.5 32.5 2.5 9.9 5.7 20.5 7.1 23.5 6.2 13.7 19.2 20.2 30 15z m-532.4 -5.2 c4.5 -5.6 6.3 -10.3 8.2 -21.3 0.9 -4.9 3 -15.3 4.6 -23 1.6 -7.7 5.2 -25.5 8 -39.5 11.2 -55.9 14.1 -70 16.7 -80.8 2 -8.6 2.4 -11.5 1.5 -12.4 -2.4 -2.4 -4.4 2.6 -6.7 16.6 -0.9 5 -3.1 16.5 -5 25.6 -4.5 21 -8.9 43.2 -17 84 -3.6 17.9 -6.9 34.8 -7.5 37.6 -0.6 2.9 -2.6 7.8 -4.5 10.9 -3.8 6.3 -3.9 6.5 -2.6 6.5 0.5 0 2.5 -1.9 4.3 -4.2z m-39.1 -21.9 c0.7 -10.2 6 -38.4 13.9 -73.9 11.7 -52.4 16.1 -76.2 14.5 -77.9 -1.1 -1 -3.3 2.8 -3.9 6.7 -0.9 5.4 -9.1 44.9 -13.6 65.7 -6.1 27.9 -13.8 67.9 -15.3 79.2 -1.2 9.2 -1.2 10.3 0.2 10.6 3.2 0.9 3.6 -0.1 4.2 -10.4z m617.6 6.4 c-5.6 -19.4 -8.2 -28.9 -10.6 -38.8 -13.7 -56.7 -22.9 -93.6 -26.8 -107.2 -4.3 -15.2 -6.3 -19.7 -6.3 -13.9 0 5.1 8.1 40 13.5 58.1 1.3 4.4 5.1 19.5 8.5 33.5 11.8 49.7 17.8 70 20.7 70 1 0 1.4 -0.6 1 -1.7z m-694.8 -0.7 c0.6 -0.7 2 -6 3.1 -11.7 1.1 -5.7 4.7 -23.7 8 -39.9 3.3 -16.2 7 -34.2 8.1 -40 1.1 -5.8 3.9 -18.8 6.1 -29 8.1 -36.8 8.8 -40.5 8.2 -43 l-0.6 -2.5 -1.8 2.3 c-1 1.2 -2.4 4.6 -3 7.5 -0.9 4.5 -6.7 34.4 -11.6 59.2 -0.8 4.4 -3.1 14.8 -4.9 23 -6.9 30.2 -11.4 52.2 -12.5 60.5 -0.5 4.7 -1.3 10 -1.6 11.8 -0.5 3.3 0.6 4.2 2.5 1.8z m50.5 -9.3 c1.8 -10.7 3.9 -21.1 11.6 -55.3 2.1 -9.6 4.4 -20.4 5 -24 0.5 -3.6 3.8 -19.2 7.2 -34.6 5.7 -26.3 6.7 -34.7 3.8 -32.9 -1.4 0.9 -3.9 9.3 -5.5 19 -1.5 9.1 -5.1 26.3 -13.1 63.5 -6.5 30.6 -13.2 63.8 -13.9 69.8 -0.6 4.7 -0.5 5.2 1.2 5.2 1.6 0 2.1 -1.6 3.7 -10.7z m688.6 4.9 c0 -12.2 -5.1 -35.5 -16.1 -73.8 -1.5 -5.5 -3.5 -13.4 -4.4 -17.5 -4.3 -21 -16 -65.2 -19.1 -72.8 -1.1 -2.7 -1.7 -3.2 -2.7 -2.2 -0.9 0.9 -0.6 3.5 1.7 11.9 1.6 5.9 5 19 7.6 29.2 14.2 54.9 17.3 67 18.5 72 0.7 3 3.1 12.2 5.4 20.4 3.7 13.5 4.1 16.1 4.1 26.3 l0 11.3 2.5 0 c2.3 0 2.5 -0.3 2.5 -4.8z m-776.3 1.2 c5 -2 11.9 -9 14.2 -14.4 3 -7 9.8 -37.4 20.1 -90 4.9 -25.3 12.2 -68.1 11.7 -68.7 -1.3 -1.3 -3.2 4.5 -6.2 19.3 -8.5 41.2 -12.9 62.9 -18.5 91 -9.3 47.4 -10.9 52.6 -17.1 56.6 -7.1 4.6 -19.6 4.8 -26.1 0.5 -5.8 -4 -7.2 -7.8 -7.1 -19.2 0.1 -10.5 0.3 -11.5 12.8 -72 3.6 -17.6 7.3 -35.8 8.2 -40.5 0.9 -4.7 3.5 -16.6 5.9 -26.5 5.1 -21.7 6.5 -32.5 4.1 -32.5 -1.8 0 -2.9 3.3 -5.1 15.6 -0.8 4.3 -4.2 21.2 -7.6 37.4 -3.3 16.2 -6.8 33.1 -7.6 37.5 -0.9 4.4 -3.5 17.5 -5.9 29 -10.8 52.6 -11.2 55.4 -7.1 64.1 3.2 6.9 10.5 12.3 19.3 14.3 4.1 0.9 7 0.6 12 -1.5z m829.6 -12.2 c7.5 -4 12.6 -11.6 14.1 -20.8 0.6 -4 -2.1 -16.5 -11.4 -51.9 -6.9 -26.7 -19.1 -74.5 -21 -82.5 -5.7 -24.6 -10.5 -39.9 -12.2 -38.2 -0.4 0.4 2.6 14.3 6.8 30.8 4.1 16.4 11.5 45.7 16.4 64.9 4.8 19.3 10 39 11.4 44 3.1 10.4 5.6 24.9 5.6 32 0 13.8 -7.1 20.5 -21.8 20.5 -9.5 0 -14.7 -3.9 -18.6 -13.9 -1.8 -4.6 -28.2 -108 -34.2 -134 -3.1 -13.4 -6.2 -21.2 -7.1 -18.4 -1 2.8 6.3 34.7 16.4 71.8 3.3 12.2 11.4 43.9 16.8 65.6 1.3 5.2 3 10.9 3.7 12.5 2.8 6.5 7.9 13.4 12 16.2 8.4 5.8 14.4 6.1 23.1 1.4z m-580.6 -45.9 c-0.2 -2.1 -0.4 -0.6 -0.4 3.2 0 3.9 0.2 5.5 0.4 3.8 0.2 -1.8 0.2 -5 0 -7z m1 -18 c-0.2 -1.6 -0.4 -0.5 -0.4 2.2 0 2.8 0.2 4 0.4 2.8 0.2 -1.3 0.2 -3.5 0 -5z m4.2 -67.8 c0.6 -11.5 1.3 -30.7 1.5 -42.5 0.4 -24.2 0.2 -21.4 -1.4 14 -0.6 13.5 -1.8 36.2 -2.6 50.5 -0.7 14.3 -1.3 28.3 -1.3 31 0.2 5.6 2.1 -21.4 3.8 -53z m297.8 50.3 c-0.2 -1.3 -0.4 -0.3 -0.4 2.2 0 2.5 0.2 3.5 0.4 2.3 0.2 -1.3 0.2 -3.3 0 -4.5z m-1.8 -37 c-0.8 -16.1 -1.6 -27.7 -1.8 -25.8 -0.4 4.5 2 56.2 2.7 55.6 0.3 -0.3 -0.2 -13.7 -0.9 -29.8z m-2.2 -48.5 c-0.2 -3.2 -0.3 -0.6 -0.3 5.7 0 6.3 0.1 8.9 0.3 5.8 0.2 -3.2 0.2 -8.4 0 -11.5z m-1 -38 c-0.2 -2.7 -0.3 -0.5 -0.3 4.7 0 5.2 0.1 7.4 0.3 4.8 0.2 -2.7 0.2 -6.9 0 -9.5z m26.9 -139.4 c8.3 -6.6 14.1 -9.3 25.7 -11.9 5.3 -1.2 9.7 -2.6 9.7 -3 0 -2.1 -4.7 -6.2 -10.2 -8.9 -4.6 -2.4 -7.5 -3.1 -11.7 -3.1 -6.3 0 -16.5 2.6 -22.8 5.9 -6.9 3.5 -7.3 4.5 -7.3 21.8 l0 15.2 5.3 -5.6 c2.8 -3 7.9 -7.7 11.3 -10.4z m-343.7 -33.5 c3.6 -3 3.2 -4.8 -0.7 -3.2 -3.6 1.6 -6.3 3.9 -5.6 4.9 0.9 1.6 3.2 1 6.3 -1.7z"/>
  <path d="M1270.5 1237.6 c-0.5 -0.3 -4.1 -0.8 -7.9 -1.1 l-6.9 -0.7 0.6 -5.1 c0.3 -2.9 2.8 -13.1 5.5 -22.7 5.9 -20.9 10.6 -37.9 28.2 -102.5 14.2 -52 14 -51.5 16.7 -51.5 4.2 0 14.4 3 20.4 6 21.1 10.7 36.2 28.7 45.4 54 5.6 15.7 5.7 44.4 0.2 60.5 -10.9 31.7 -32 52 -62.3 60.1 -7.9 2.1 -12.8 2.7 -24.4 3 -8 0.2 -14.9 0.2 -15.5 0z"/>
  <path d="M318.9 1242 c-42.1 -7.4 -70.2 -39.4 -72.6 -82.5 -1.6 -29.9 8.2 -56.4 27.8 -75.1 10.5 -10 26.3 -17.9 34.4 -17.2 l3.9 0.3 2.2 7.5 c2.1 7 12.7 38 36.3 105.5 11.9 34 16.1 48.4 16.1 54.7 0 4.5 0 4.6 -4.2 5.7 -13.6 3.6 -27.4 4 -43.9 1.1z"/>
  <path d="M745.3 970.3 c0.3 -4.3 1.5 -10.9 2.7 -14.8 3.5 -11.2 11.2 -26.6 15.7 -31.3 3.9 -4.1 4.2 -4.2 10.2 -4.2 6.1 0 6.2 0 7.7 3.5 1.9 4.6 1.8 19.1 -0.2 26.9 -0.9 3.3 -3.2 9.2 -5.1 12.9 -5.6 10.7 -12.2 14.6 -24.7 14.7 l-6.9 0 0.6 -7.7z"/>
  <path d="M401 710.3 c0 -1.5 3.7 -17.4 8.2 -35.4 l8.1 -32.7 3 -0.6 c4.9 -1 22.9 -0.7 27 0.5 5.2 1.4 10.2 6.1 12.3 11.4 1.3 3.6 1.6 6.5 1.1 14.2 -0.9 16.1 -7.9 33.5 -15.9 39.6 -6.2 4.8 -10.7 5.7 -27.9 5.7 l-15.9 0 0 -2.7z"/>
  <path d="M140 730.8 c0 -1.9 2.2 -11.1 4.9 -20.4 2.7 -9.3 7.4 -26.1 10.6 -37.4 3.1 -11.3 6.8 -24.2 8.1 -28.7 l2.5 -8.3 12.3 0 c14.6 0 21.5 1.7 26.2 6.4 7.4 7.4 7.3 22.3 -0.2 47.2 -5.4 17.9 -10.9 28.8 -17.6 35 -7.9 7.1 -12.7 8.5 -31.5 9.2 l-15.3 0.4 0 -3.4z"/>
  <path d="M1265.1 502.9 c-1.1 -3.7 -23.2 -90.5 -26.1 -102.9 -2 -8.7 -8.6 -34.8 -13.6 -53.8 -1.9 -7.3 -3.4 -14.9 -3.2 -17 0.3 -3.7 0.4 -3.7 6.3 -5 9.1 -1.9 33.9 -1 44 1.7 30.3 8 55.6 32.2 64 61.4 2.4 8.6 3.6 26.8 2.5 39.6 -3 34.4 -23.9 63.8 -53.3 75.1 -4.5 1.8 -10.7 3.5 -13.8 3.7 l-5.7 0.6 -1.1 -3.4z"/>
  <path d="M723.3 549.5 c-4.9 -3.5 -5.3 -7.9 -5.3 -62.6 0 -37.3 0.3 -51.5 1.2 -53.4 1.8 -3.9 5.7 -5.5 13.6 -5.5 7.5 0 9.1 1 10.5 7 0.3 1.4 0.7 26.1 0.8 55 0.3 48.4 0.2 52.8 -1.4 55.8 -1 1.8 -2.9 3.7 -4.3 4.2 -3.9 1.5 -12.7 1.2 -15.1 -0.5z"/>
  <path d="M758.6 548.9 c-5.3 -4.6 -5.6 -8.3 -5.2 -63.4 0.3 -54.1 0.4 -54.3 5.7 -57.1 3.3 -1.7 12.2 -1.9 15.1 -0.3 1.1 0.6 2.7 2.7 3.6 4.7 1.5 3.3 1.7 9.5 1.9 52.7 0.1 27 -0.1 51.2 -0.4 53.9 -0.3 3.3 -1.4 5.8 -3.3 7.9 -2.3 2.6 -3.5 3.1 -8.7 3.5 -5.2 0.4 -6.3 0.1 -8.7 -1.9z"/>
  <path d="M794.3 550 c-1.2 -0.5 -3 -2.1 -4 -3.7 -1.7 -2.5 -1.8 -6.2 -1.8 -54.8 0 -28.6 0.3 -53.6 0.8 -55.6 0.4 -2 1.8 -4.8 3.2 -6.3 2.1 -2.2 3.2 -2.6 8.2 -2.6 3.8 0 6.7 0.6 8.2 1.6 5 3.6 5.1 4.5 5.1 59.6 0 32.1 -0.4 52.7 -1 55 -1.5 5.4 -5.1 7.8 -11.4 7.7 -2.8 0 -6.1 -0.4 -7.3 -0.9z"/>
  <path d="M829.3 550 c-1.2 -0.5 -3 -2.1 -4 -3.7 -1.7 -2.5 -1.8 -6.3 -1.8 -57.8 0 -62.9 -0.4 -59.8 8.1 -61.1 6.6 -1 12.3 0.5 14.8 3.9 2.1 2.8 2.1 3.8 2.4 55.8 0.2 35.8 -0.1 54.3 -0.8 57 -0.9 3.2 -1.8 4.4 -4.5 5.5 -3.8 1.6 -10.8 1.8 -14.2 0.4z"/>
  <path d="M862.1 549.1 c-3.8 -3.8 -4.1 -8.1 -4.1 -61.6 0 -49.5 0.1 -52.2 1.9 -55.1 3.7 -6.1 15.7 -7.2 21 -2 l2.6 2.6 0.3 53.3 c0.3 37.6 0 54.3 -0.8 57 -1.5 5.2 -5.8 7.7 -13.2 7.7 -4.4 0 -6.3 -0.5 -7.7 -1.9z"/>
  <path d="M326.5 517.5 c-23.3 -6.3 -44.7 -26.1 -55.3 -50.9 -6.1 -14.6 -7.7 -23 -7.6 -41.1 0.1 -13.2 0.5 -17.4 2.3 -24 5.3 -19.7 17 -37.2 32.4 -48.7 9.8 -7.2 18.4 -12 26.2 -14.6 8.1 -2.8 26.2 -4.3 40.6 -3.5 l11.9 0.6 0 6.8 c0 9.5 -3 24.9 -19.9 103.9 -8.9 41.4 -13 61.5 -13.7 67.3 l-0.7 5.7 -5.6 -0.1 c-3.1 0 -7.8 -0.6 -10.6 -1.4z"/>
  <path d="M723.4 307 c-5.3 -1.2 -10.3 -4.9 -13.2 -9.8 -2.5 -4.3 -2.7 -5.6 -2.7 -14.8 0 -9.3 0.2 -10.4 2.7 -14.2 4.2 -6.3 10.5 -9.5 19.8 -10 9.4 -0.5 13.9 0.8 19.2 5.6 5.4 4.9 6.8 8.8 6.8 19 0 10.1 -2.1 15.5 -7.8 20.2 -5.3 4.3 -16.1 6.1 -24.8 4z"/>
  <path d="M793.5 307.1 c-5.4 -1.4 -9.5 -4.1 -12.5 -8.3 -4 -5.5 -5.3 -10.9 -4.7 -19.1 0.5 -8.3 3.8 -13.6 11 -18.1 4.1 -2.5 6.1 -3 13.1 -3.4 10.5 -0.5 14.5 0.7 19.1 6.1 6.1 7.1 8 18.1 5 28.4 -2.9 9.9 -9 14.2 -20.9 14.8 -3.9 0.3 -8.4 0.1 -10.1 -0.4z"/>
  <path d="M861.7 306.6 c-9.7 -2.7 -15.7 -11.9 -15.7 -24 0 -16.4 8.7 -24.6 26 -24.6 10.5 0 15 2.2 19.4 9.3 2.6 4.2 3 6.1 3.4 13.7 0.6 13.3 -2.2 20.1 -10.1 23.9 -5.5 2.7 -16.7 3.5 -23 1.7z"/>
  <path d="M725.5 230.2 c-7.1 -0.4 -18.9 -3.4 -24.3 -6 -6.5 -3.2 -11.5 -8.5 -15.2 -16.4 -4.7 -10 -5.1 -15.4 -4.8 -63.9 0.4 -49 0.4 -48.9 7 -59.9 4.1 -6.7 10.8 -11.9 19.6 -15.1 l6.7 -2.4 85 0 c94.8 0 91.9 -0.2 103.5 6.9 6.5 4 13.1 12.9 15.5 20.9 2.7 9.1 3.4 26.7 2.6 66.2 -0.8 35.3 -1 38.4 -3 43.5 -6.6 17.4 -16.8 24.2 -38.9 25.9 -10 0.9 -142.3 1.1 -153.7 0.3z m16.9 -40.7 c-0.5 -1.2 -2.8 -1.5 -11.9 -1.5 -6.2 0 -12 0.3 -12.9 0.6 -4.2 1.6 -0.4 2.4 11.9 2.4 11.5 0 13.4 -0.2 12.9 -1.5z m30.6 0 c0 -0.8 -0.7 -1.5 -1.5 -1.5 -0.8 0 -1.5 0.7 -1.5 1.5 0 0.8 0.7 1.5 1.5 1.5 0.8 0 1.5 -0.7 1.5 -1.5z m48.8 0.3 c-0.3 -0.9 -3.8 -1.4 -11.4 -1.6 -11.5 -0.3 -15.9 0.2 -14.9 1.8 1 1.6 26.8 1.3 26.3 -0.2z m59 0 c-0.5 -1.4 -17.8 -2.4 -23.6 -1.3 -6.9 1.3 -1.5 2.5 10.9 2.5 10 0 13 -0.3 12.7 -1.2z m-48.8 -15.4 c0 -11.1 -0.2 -12.5 -1.5 -11.4 -2.6 2.1 -1.6 24 1.1 24 0.2 0 0.4 -5.7 0.4 -12.6z m60 -1.8 c0 -11.8 0 -11.9 -2 -10.1 -1.7 1.5 -2 3.1 -2 9.4 0 8.7 1.7 16.3 3.1 14 0.5 -0.8 0.9 -6.8 0.9 -13.3z m-139 0.8 c0 -11.1 -0.2 -12.5 -1.5 -11.4 -1.1 1 -1.5 3.6 -1.5 11 0 10 0.5 13 2.1 13 0.5 0 0.9 -5.7 0.9 -12.6z m40 -1.9 c0 -6.1 -0.4 -8.6 -1.5 -9.5 -1.3 -1.1 -1.5 0 -1.5 8.8 0 8.6 0.2 10 1.5 9.6 1.2 -0.5 1.5 -2.5 1.5 -8.9z m-79 0.1 c0 -6.2 -0.4 -8.7 -1.5 -9.6 -1.3 -1.1 -1.5 -0.1 -1.5 8.4 0 7.9 0.3 9.6 1.5 9.6 1.2 0 1.5 -1.6 1.5 -8.4z m138.8 0.2 c0.2 -5.8 -0.1 -7.8 -1.3 -8.8 -1.3 -1.1 -1.5 -0.2 -1.5 8 0 6.9 0.3 9.1 1.3 8.8 0.8 -0.3 1.3 -3.1 1.5 -8z m-99.8 -40 c-0.1 -11.9 -0.2 -13.1 -1.5 -11.4 -2.8 3.8 -1.8 24.6 1.2 24.6 0.2 0 0.3 -6 0.3 -13.2z m40 2.7 c0 -6.4 -0.3 -8.4 -1.5 -8.9 -1.3 -0.4 -1.5 1 -1.5 9.6 0 8.8 0.2 9.9 1.5 8.8 1.1 -0.9 1.5 -3.4 1.5 -9.5z m98.1 -14.2 c-1.4 -2.6 -3.1 4.7 -3.1 13.6 0 5.7 0.4 7.9 1.8 9.4 1.6 1.8 1.7 1.4 2 -9.7 0.1 -6.4 -0.2 -12.4 -0.7 -13.3z m-177.1 13.7 c0 -6 -0.3 -7.9 -1.5 -8.4 -1.3 -0.4 -1.5 0.9 -1.5 9.1 0 8.4 0.2 9.4 1.5 8.3 1.1 -0.9 1.5 -3.3 1.5 -9z m118 -3.2 c-0.1 -12.6 -0.2 -13.1 -1.5 -9.9 -2.7 6 -1.8 23.1 1.2 23.1 0.2 0 0.3 -6 0.3 -13.2z m21 3.1 c0 -6.4 -0.3 -7.9 -1.5 -7.9 -1.2 0 -1.5 1.7 -1.5 9.1 0 8 0.2 9 1.5 7.9 1.1 -0.9 1.5 -3.3 1.5 -9.1z m-110.6 -17.4 c0.5 -1.3 -1.4 -1.5 -12.9 -1.5 -7.5 0 -13.5 0.4 -13.5 0.9 0 1.6 2.2 1.9 14.1 2 9.5 0.1 11.8 -0.2 12.3 -1.4z m79.4 -0.2 c0.3 -1 -2.8 -1.3 -13.5 -1.3 -12.5 0.1 -13.6 0.2 -11.8 1.6 2.6 1.9 24.6 1.6 25.3 -0.3z m59 0 c0.3 -1 -2.8 -1.3 -13.5 -1.3 -12.5 0.1 -13.6 0.2 -11.8 1.6 2.6 1.9 24.6 1.6 25.3 -0.3z"/>
 </g>
 <g fill="#ffffff">
  <path d="M841.5 1535.6 c-15.9 -4.1 -41.1 -16.5 -56.4 -27.6 -5.6 -4.1 -7.3 -6 -8.7 -9.7 -1.7 -4.5 -1.7 -5 0.3 -16.7 2.7 -16 6.8 -26.8 16.1 -42.3 4.2 -7 9.7 -17 12.3 -22.2 4.4 -8.8 7.2 -12 10.7 -12.1 1.9 0 1.6 1.3 -4.3 15.9 -5.3 13.4 -9.5 28 -9.5 33.1 0 2.1 0.6 1.6 3.6 -3 4 -6.3 26.4 -48.5 26.4 -49.8 0 -0.4 -1.4 -1.9 -3.1 -3.1 -3.9 -2.9 -2.6 -4.9 2.1 -3.2 4 1.3 4.6 1 5.3 -3.1 0.3 -1.8 1.7 -8.7 3.1 -15.3 2.5 -11.8 4.1 -24.5 3.1 -24.5 -0.2 0 -1.1 1.3 -2 2.9 -1.9 3.8 -4.4 6.3 -5.6 5.6 -1.7 -1.1 -0.9 -7.4 1.6 -13.1 1.4 -3.1 2.5 -5.7 2.5 -5.9 0 -0.1 -2.7 -1 -6 -2 -3.3 -1 -6 -2.2 -6 -2.6 0 -0.5 1.1 -1.6 2.4 -2.5 1.9 -1.2 3.8 -1.4 7.9 -0.9 l5.5 0.7 2.7 -5.8 c1.4 -3.3 3.5 -8.8 4.6 -12.4 4 -12.9 9.5 -25.6 13.6 -31.7 2.3 -3.4 5.3 -8.4 6.7 -11.2 4.8 -9.4 8.6 -10 30.1 -4.6 26.7 6.7 30.2 8.2 51.6 22.6 14.1 9.4 18.9 13.8 20.3 18.6 1 3 -7.6 29.6 -12.3 38.7 -2.1 3.9 -6 10.9 -8.8 15.6 -2.7 4.7 -5.5 10.1 -6.2 12 -1.2 3.4 -1.1 3.6 2.3 6.5 3.5 2.9 6.5 8.9 5.2 10.3 -0.4 0.3 -3.1 -0.6 -5.9 -2.1 -2.9 -1.5 -5.7 -2.7 -6.2 -2.7 -0.6 0 -2.1 2.8 -3.4 6.3 -1.3 3.4 -5.8 13.2 -9.9 21.7 -13.6 28.5 -17.4 37.4 -24.2 57.5 -7.4 22 -13.3 35.1 -20.7 46.5 -6.6 10 -11.1 15 -15 16.6 -4.8 2.1 -15.6 1.6 -25.8 -1z m21.2 -25.7 c5.5 -5.2 13.1 -25.5 10.5 -28.1 -0.6 -0.6 -6 -2.4 -12 -3.9 -12.7 -3.2 -25.9 -9.1 -39.4 -17.6 l-9.7 -6.1 -1.9 2.2 c-3.2 3.3 -10 16.6 -11.1 21.6 -2 8.9 4.2 15.3 24.4 25.3 6.6 3.3 20.1 8 25.5 9.1 5.2 0.9 11.1 -0.1 13.7 -2.5z m27 -32.4 c6.7 -10.7 19.1 -35.8 19.9 -40.1 0.6 -3 0.4 -3.2 -4.2 -4.8 -6.2 -2.1 -6 -2.1 -6.8 1.5 -0.3 1.7 -4.1 12.1 -8.5 23.2 -7.8 19.8 -11.1 29.6 -11.1 32.6 0 2.7 4.9 -3 10.7 -12.4z m25.4 -52.7 c10.8 -21.3 16.6 -34.7 14.7 -33.5 -5.1 3 -26.8 31.4 -26.8 35 0 1.2 5.5 4.2 8.2 4.6 0.4 0.1 2.2 -2.7 3.9 -6.1z m2.5 -30 c8.8 -9.5 16.4 -21.1 16.4 -25.1 0 -7.2 -9.1 -15.1 -27.1 -23.6 -13.3 -6.3 -33.8 -13.2 -41.1 -13.8 -6.5 -0.6 -9.8 0.9 -12.2 5.5 -2 4.1 -5.7 22.2 -5.9 29.3 -0.2 7.6 -0.6 7.3 17.6 12.6 14.7 4.2 23.2 8.1 35.2 16.1 5 3.3 9.3 6.1 9.7 6.1 0.3 0.1 3.6 -3.2 7.4 -7.1z"/>
  <path d="M836.1 1496.7 c-3.2 -1.6 -6 -9.4 -6.1 -16.7 l0 -5.5 4 4.5 c4.9 5.6 7.3 10.4 7.4 14.9 0.1 4 -1.5 4.8 -5.3 2.8z"/>
  <path d="M764.2 1505.8 c-1.5 -1.9 -2.4 -8.1 -1.4 -9.6 1.2 -1.8 5.4 -0.1 7.5 3.2 2.3 3.4 0.8 7.6 -2.7 7.6 -1.3 0 -2.8 -0.6 -3.4 -1.2z"/>
  <path d="M753.3 1438.3 c-1.2 -2.6 -2.4 -6.4 -2.8 -8.3 -1.3 -6.3 -1.6 -6.3 -8.9 -1.5 -11.1 7.2 -12.2 6.3 -8.6 -7.5 1 -4.1 1.8 -7.5 1.7 -7.6 -0.3 -0.2 -12.7 1.5 -15.4 2.1 -4.5 1.1 -2.7 -3.7 4.2 -11.6 7.3 -8.2 7.3 -7.2 -0.5 -12.2 -1.9 -1.3 -3.6 -3 -3.8 -3.9 -0.4 -1.9 6.1 -4.7 13 -5.5 4.3 -0.5 4.8 -0.4 4.2 1.2 -0.4 0.9 -2.5 2.5 -4.7 3.4 l-3.9 1.7 4.1 2.7 c2.2 1.5 4.1 3.1 4.1 3.5 0 1 -2.6 4.8 -7.4 10.6 l-4 4.9 3.4 -0.6 c8.8 -1.6 12 -1.9 12 -1.1 0 0.5 -0.6 4.3 -1.4 8.4 -0.8 4.1 -1.3 7.7 -1.1 7.9 0.3 0.2 2.9 -1.3 5.9 -3.4 3 -2.1 6.2 -3.5 7 -3.2 0.8 0.3 2.5 3.7 3.7 7.6 1.2 3.8 2.6 6.8 2.9 6.6 0.4 -0.3 1.7 -3.1 2.9 -6.4 3.1 -8.5 4.1 -9 9.4 -4.7 2.4 2 4.7 3.6 5.1 3.6 0.3 0 0.6 -2.2 0.6 -4.9 0 -2.8 0.4 -5.2 1 -5.6 0.5 -0.3 3.5 0.3 6.7 1.4 3.2 1.1 5.9 1.8 6 1.7 0.1 -0.1 -0.7 -2 -1.8 -4.2 -1.1 -2.3 -1.7 -4.9 -1.3 -5.8 0.6 -1.5 1 -1.4 3.6 1.1 2.9 2.7 6.8 9.4 8.2 14.1 1 3 -1.4 2.9 -10 -0.3 -3.6 -1.4 -6.8 -2.5 -7 -2.5 -0.2 0 -0.4 3.2 -0.4 7.1 0 6.8 -0.1 7 -2.2 6.3 -1.3 -0.4 -4.3 -2.4 -6.7 -4.5 -2.4 -2.2 -4.7 -3.9 -5.2 -3.9 -0.4 0 -2.3 3.9 -4.1 8.7 -2 5.2 -4.1 8.9 -5 9.1 -1 0.2 -2.2 -1.3 -3.5 -4.5z"/>
  <path d="M971.4 1424.4 c0.3 -0.9 0.6 -6.3 0.6 -12 0 -11.8 0.1 -11.9 8 -8.8 7.3 2.9 8.2 9 2.3 15.5 -5.1 5.6 -12.4 9.2 -10.9 5.3z"/>
  <path d="M619.5 1422.5 c-6.4 -1.7 -9.5 -5.2 -9.5 -10.8 0 -8.5 9.2 -14.8 22.8 -15.5 l8.2 -0.5 0.2 10.7 c0.1 5.8 0.2 11.6 0.2 12.8 0.1 2.5 -1.9 3.2 -10.9 4.1 -3.5 0.3 -8 0 -11 -0.8z"/>
  <path d="M766 1398.5 l-2.3 -2.4 2.7 -1.1 c3.8 -1.4 4.3 -1.3 4.9 1.2 0.6 2.1 -0.7 4.8 -2.2 4.8 -0.4 0 -1.8 -1.1 -3.1 -2.5z"/>
  <path d="M985.7 1388.3 c-1.6 -1.6 -0.4 -4.8 3.2 -8.4 3.2 -3.2 4.6 -3.9 7.8 -3.9 5.7 0 9.1 4.6 6.5 8.7 -1.9 3.1 -15.3 5.8 -17.5 3.6z"/>
  <path d="M799.4 1377.4 c-1.8 -2.7 -1.3 -3.8 2.3 -4.8 2.5 -0.8 3.9 2 2.8 5.4 -0.9 2.7 -3.1 2.5 -5.1 -0.6z"/>
  <path d="M816.5 1372 c-1.5 -1.6 -1.5 -2.2 -0.5 -3.5 1.6 -1.9 5.6 -2 6.3 -0.1 0.9 2.3 -0.4 5.6 -2.3 5.6 -0.9 0 -2.5 -0.9 -3.5 -2z"/>
  <path d="M1026.9 1372 c-6.7 -1.1 -10.2 -3.3 -14.2 -8.7 -9.3 -12.6 -13.4 -13.7 -27.3 -7.4 -5.1 2.3 -9.7 4.1 -10.3 4.1 -1.4 0 -1.4 -10.6 -0.1 -31.3 1 -16.5 0.8 -16.1 10.4 -31.4 l5.7 -9.2 -3 -8.7 c-1.7 -4.9 -3.1 -9.7 -3.1 -10.7 0 -1 1.3 -6.6 3 -12.5 1.6 -5.9 5.2 -18.8 7.9 -28.7 2.7 -9.9 5.9 -22 7.1 -27 3.5 -15.2 5.9 -24.2 11.6 -44.5 9.6 -34 11.4 -40.3 11.7 -40.6 0.1 -0.1 3.4 -0.5 7.3 -0.9 l7.1 -0.7 -3.7 14.3 c-3.8 14.6 -13.4 50.5 -14.6 54.7 -0.6 2 -0.3 2.2 2.7 2.2 16.6 0.1 42.4 2.6 69.9 7 19.6 3.1 63 17.3 86.8 28.5 10 4.8 12.7 7.9 11.3 13.4 -0.6 2.2 -1.4 2.6 -5 2.9 -5.1 0.4 -10.7 -1.4 -26 -8.3 -22.1 -10 -61.3 -21.8 -85.7 -25.9 -20.2 -3.4 -57.2 -4.4 -59 -1.5 -0.2 0.5 -1.3 3.9 -2.3 7.6 -1 3.7 -4.3 15.4 -7.4 25.8 -4.6 16.2 -7.1 26.5 -6.4 26.5 0.1 0 2.5 -0.9 5.3 -1.9 9.2 -3.6 27.1 -4.5 49.4 -2.7 28.4 2.3 54.6 8.3 83.8 19.1 l18.2 6.8 17.8 -8.6 c9.7 -4.7 21.5 -10.2 26.2 -12.3 4.7 -2 9.8 -4.6 11.3 -5.6 2.6 -1.9 2.7 -2.2 1.3 -3.7 -1.9 -2.1 -2 -4.4 -0.5 -7.4 2.5 -4.7 6.3 -4.9 13.1 -0.7 4.7 2.9 4.9 3 7.4 1.3 5.6 -3.6 10.7 -15.8 16 -37.9 1.4 -6 4.3 -17 6.4 -24.4 2 -7.4 6.1 -22 9 -32.5 2.9 -10.4 6.9 -25.1 9 -32.5 2.1 -7.4 6.6 -23.6 10 -36 3.4 -12.4 7.7 -27.7 9.5 -34 10.4 -36.3 9.7 -47.6 -3.7 -60.7 -27.5 -26.8 -88.1 -48.8 -143.2 -51.9 l-11.6 -0.7 0 -4.1 c0 -2.3 -1.2 -8.9 -2.7 -14.9 -1.4 -5.9 -2.3 -11 -2 -11.3 0.9 -1 26.7 -0.5 38.9 0.6 29.6 2.8 63.5 13 96.3 29 30.6 14.9 47.9 28.3 54.5 42.2 4 8.5 4.1 15.9 0 29.9 -4 14 -4.8 19.9 -2.6 19.9 6 0 29.2 11.1 39.7 19 16.2 12.2 29.8 30.7 39.4 53.7 2 4.7 6.1 20.7 7.6 29.7 0.7 4.3 1 12.6 0.6 22 -0.4 12.4 -1 17.2 -3.6 27.1 -10.1 39.4 -40.9 71.5 -82.4 85.7 -9.1 3.1 -9.5 3.2 -29.2 3.2 -11 0.1 -24.8 -0.3 -30.7 -0.7 -10.1 -0.8 -10.8 -0.7 -10.8 1 0 1 -0.9 3.6 -2 5.8 -1.1 2.2 -2 4.8 -2 5.8 0 2 -5 21.9 -9.7 38.2 -7.6 26.6 -18.7 34.6 -52.5 37.6 -19.6 1.7 -49.8 -1.5 -79.6 -8.6 -5.7 -1.4 -11.1 -2.5 -11.9 -2.5 -0.9 0 -7.2 4.6 -14.2 10.2 -13.8 11.1 -22.8 16 -33.6 18.3 -7.6 1.6 -9.7 1.7 -16.6 0.5z m280.5 -140.5 c20 -5.2 36 -15.8 47.4 -31.3 21.6 -29.3 24.9 -64.9 8.9 -96.7 -11 -22 -31 -39.6 -50.9 -44.8 l-5.6 -1.5 -4.5 16.2 c-4.5 16.1 -10.5 38 -19.2 70.1 -2.6 9.4 -6.6 24 -9 32.5 -3.9 14.1 -14.1 51.1 -15.1 55.2 -0.4 1.4 0.6 1.7 6.3 2.3 3.7 0.4 7.3 0.8 7.8 1.1 3.1 1.3 24.8 -0.7 33.9 -3.1z"/>
  <path d="M716.5 1371.3 c-2.9 -0.7 -5.4 -3.3 -7.7 -7.8 -1.1 -2.2 -4.1 -6.7 -6.6 -10 -4.5 -6 -9.8 -16.4 -15.3 -30.3 -1.6 -4 -4.2 -9.9 -5.9 -13.1 l-2.9 -5.9 -5.1 1.5 c-4.6 1.3 -5.3 1.3 -7.6 -0.2 -3.4 -2.2 -2.6 -3.7 3.2 -5.8 2.7 -1 5 -2 5.2 -2.2 0.5 -0.5 -23.3 -47.6 -31 -61.4 -3.8 -6.8 -10.8 -18.1 -15.5 -25 -10 -14.7 -12.1 -18.7 -17.8 -33.5 -8.7 -22.6 -9.4 -28.4 -4.4 -35.9 8.2 -12.4 33.8 -28.3 60.4 -37.4 9 -3 12.4 -3.7 19 -3.8 9.7 0 10.8 0.7 19.2 12 14.9 19.9 21 31 27.7 50.5 4.5 13 33.1 69.9 40.7 81.1 l1.6 2.3 4.5 -3.3 c5 -3.6 6.8 -3.4 6.8 0.5 0 1.6 -1.4 3.8 -4.1 6.3 l-4.1 3.8 1.9 4.4 c1.1 2.4 5.3 9.4 9.4 15.4 4.1 6.1 8.9 14.4 10.6 18.5 12.6 30 13 33 4.4 33 -1.5 0 -4.9 -0.7 -7.6 -1.6 l-4.8 -1.7 -4.3 4.5 c-4.4 4.7 -6.4 9.6 -6.4 16.3 0 7.3 -0.5 7.8 -12.3 13.7 -19.4 9.7 -43.7 16.8 -51.2 15.1z m-3 -68.8 c17.2 -5.8 44.8 -21.9 51.7 -30 4.3 -5 3.2 -11.2 -3.5 -20 -3.5 -4.6 -17.8 -19.5 -18.8 -19.5 -0.3 0 -5.6 3.5 -11.7 7.9 -13.3 9.4 -23.1 14.5 -37.2 19.5 -5.8 2 -11.1 4.1 -11.9 4.5 -1.2 0.8 -1.2 2.5 0.4 12.3 2.1 13.5 4.8 21.3 8.7 25.2 2.8 2.7 3.2 2.8 10.1 2.4 4 -0.3 9.5 -1.3 12.2 -2.3z m-36.2 -18.2 c-2.2 -16.1 -7 -35.8 -9.8 -40.3 -0.5 -0.8 -7.5 1.9 -9.5 3.7 -0.4 0.3 19.1 40.3 19.7 40.3 0.1 0 -0.1 -1.7 -0.4 -3.7z m-16 -51.7 c-8.4 -16.7 -29.6 -49.2 -30.1 -46.3 -0.9 4.5 12.9 39.5 20.4 51.8 l3.5 5.8 4.9 -2.1 4.9 -2 -3.6 -7.2z m92.1 -9.3 c-5.3 -10.3 -9.8 -18.9 -10 -19.1 -0.1 -0.2 -2.5 0.6 -5.3 1.8 l-5 2.2 1.8 3.7 c1.1 2 3.3 5.4 5.1 7.6 4 5.1 22.2 23.6 22.8 23.1 0.2 -0.2 -4 -8.9 -9.4 -19.3z m-18 -20.3 c3 -1.4 4.6 -2.7 4.6 -3.9 0 -6.8 -30.8 -55.6 -33.4 -53 -1 0.9 4.8 16.6 12.1 32.9 3.6 8 7.6 17.1 9.1 20.3 1.4 3.1 2.6 5.7 2.7 5.7 0.2 0 2.3 -0.9 4.9 -2z m-89.1 -19.7 c2.3 -1.4 6.7 -4.5 9.7 -6.8 8.1 -6.2 15.1 -9.9 28.5 -14.8 14.4 -5.4 17.5 -6.8 17.5 -7.8 0 -0.5 -1.1 -3.8 -2.5 -7.5 -6.8 -18 -12.8 -22.8 -25.7 -20.4 -11.1 2 -36.6 17 -44.1 25.9 -3.2 3.8 -3.6 9 -1.1 14.9 2.8 6.8 10.6 19.2 12 19.2 0.8 0 3.3 -1.2 5.7 -2.7z"/>
  <path d="M779.6 1368.4 c-1.7 -1.7 -2.2 -5.4 -0.7 -5.4 0.5 0 1.6 -0.3 2.4 -0.6 2 -0.7 4 3 3.2 5.6 -0.8 2.4 -2.8 2.6 -4.9 0.4z"/>
  <path d="M592.5 1365.6 c-6.8 -3.2 -10.8 -7.5 -10.3 -11.2 0.2 -2.4 1 -3.1 4.3 -4.1 2.2 -0.7 5.6 -1.5 7.5 -1.8 4.6 -0.7 17.5 -9.2 24.7 -16.3 3.2 -3.1 8.7 -9.5 12.3 -14.1 l6.5 -8.4 0.6 13.4 c0.4 7.4 0.7 18 0.8 23.5 l0.1 10.2 -7 3.6 c-11 5.8 -17.2 7.6 -26.4 7.6 -6.4 0 -9.1 -0.5 -13.1 -2.4z"/>
  <path d="M810 1355 c-1.2 -0.7 -1.1 -1.2 0.5 -3.2 1.1 -1.3 2.1 -2.4 2.2 -2.6 0 -0.2 1.3 0.4 2.7 1.4 2.5 1.6 2.6 1.8 1 3.5 -1.9 2.1 -4.1 2.4 -6.4 0.9z"/>
  <path d="M431.5 1349 c-17.4 -1.7 -27.3 -7.8 -33.9 -20.7 -3.4 -6.8 -11.1 -28.4 -14.7 -41.5 -1.8 -6.1 -4.1 -13 -5.3 -15.2 -2.5 -4.8 -2.6 -4.8 -16.6 -2.2 -12.9 2.4 -32.7 3.2 -43.1 1.6 -48.2 -7 -92 -50.7 -99 -98.6 -1.5 -10.2 -1.5 -28.7 0 -39.2 5.6 -38.8 35.5 -76.4 72.2 -90.8 5.2 -2 6.8 -3.1 6.5 -4.3 -1.1 -3.5 -6.9 -24.8 -7.8 -28.6 -3.5 -14.2 4.6 -28.7 24.7 -44 35.9 -27.5 86.4 -47.5 131.5 -52.1 15 -1.5 30.3 -1.8 29.8 -0.6 -0.4 1 -10.1 16.6 -14.3 23 -4.7 7.1 -6.7 8.1 -21.1 10.3 -18.6 2.9 -30.1 5.5 -43.3 10 -27.9 9.6 -63.4 30.4 -76.3 44.7 -7.3 8.2 -8.8 12.2 -8.8 23.3 0 12.3 -3.3 1.5 36.3 117.9 8 23.4 17.7 52 21.6 63.5 14.7 43 16.3 47.5 17.7 47.5 0.7 0 2 -1 2.8 -2.2 2.5 -3.6 9.6 -7.8 13.1 -7.8 3.7 0 5 1.2 6.1 5.4 0.6 2.6 0 3.4 -6.7 9.8 -9.8 9.2 -9.6 11.5 2.1 17.7 4.9 2.6 8.8 3.6 22.7 5.7 24.7 3.8 24.8 3.8 37.8 -2.5 19.3 -9.4 23.7 -11.3 37.5 -16.1 14 -4.9 31 -9.8 44 -12.5 19.3 -4.1 48.7 -5.8 58.9 -3.4 2.4 0.5 4.6 0.7 4.9 0.4 0.5 -0.5 -3.3 -15 -12.3 -47 l-2.2 -8 -12.9 -0.3 c-15.7 -0.3 -29.3 1.5 -50 6.8 -27.2 6.9 -52.3 16.4 -79.1 29.8 -17.1 8.5 -21.6 9.8 -24.7 7.2 -2.3 -1.8 -2 -7.2 0.5 -9.8 6 -6.5 56.4 -28.1 86.2 -37 22.6 -6.8 38 -9.3 66.5 -10.9 4.5 -0.2 8.2 -0.8 8.2 -1.1 0 -0.4 -4.7 -14.9 -10.4 -32.2 l-10.4 -31.5 3.6 -0.8 c2.1 -0.4 5.2 -0.7 7.1 -0.5 3.3 0.3 3.5 0.5 6.2 8.8 1.6 4.7 2.9 8.6 2.9 8.8 0 0.1 1.8 2.2 4.1 4.7 3.4 3.7 3.9 4.7 3 6.4 -0.6 1.1 -1.1 2.8 -1.1 3.8 0 2.2 12.8 40.8 24.6 74.3 l8.6 24.5 0.8 13 c0.6 10.3 0.4 13.6 -0.7 15.7 -1.2 2.5 -1.1 3.2 0.6 6.7 1.1 2.1 2.5 7 3.1 10.7 1 6.3 1 7 -0.7 8.2 -1 0.7 -4.7 3.4 -8.3 5.9 -9.4 6.8 -12.3 7.6 -29.4 8.1 l-14.9 0.4 -17.6 8.7 c-41.2 20.2 -94.5 31.7 -130.6 28.1z m-81.4 -109 c9.9 -1.8 13.9 -3.2 13.9 -4.8 0 -3.4 -6.4 -23.9 -16.1 -51.7 -24 -68.7 -34.2 -98.4 -36.1 -105 -1.1 -3.8 -2.4 -7.4 -2.9 -7.9 -0.5 -0.5 -3.3 0 -7 1.3 -38.2 14 -60.9 61.3 -49.8 103.8 7.3 27.8 25.9 48.3 54.1 59.4 6.4 2.5 24.2 5.7 32.4 5.8 3.4 0.1 8.6 -0.3 11.5 -0.9z"/>
  <path d="M840.4 1305.6 c-3.9 -1.7 -4.9 -4.9 -2.3 -7.2 2.7 -2.4 2.4 -3.6 -0.8 -3.2 -2.7 0.3 -2.8 0.1 -2.5 -3.6 0.4 -4.1 0.6 -4 -4.5 -1.9 -0.6 0.2 -2 -1.3 -3.1 -3.3 l-2 -3.9 -1.5 3.8 c-1.7 3.9 -2.6 4.3 -5.8 2.7 -1.6 -0.9 -1.9 -0.7 -1.9 1.1 0 1.9 -0.4 2 -3.4 1.5 -3.2 -0.6 -3.5 -0.5 -3.8 2.1 l-0.3 2.8 -2.2 -3.6 c-3.4 -5.4 -3.1 -7 0.9 -5.8 4.7 1.3 5.8 1.1 5.8 -0.8 0 -1 0.5 -2.5 1 -3.3 0.8 -1.2 1.3 -1.1 3.3 0.8 1.3 1.2 2.6 2.2 3 2.2 0.3 0 1.6 -2.1 2.7 -4.7 l2.2 -4.8 2.1 4.5 c1.2 2.5 2.3 4.7 2.5 4.9 0.1 0.3 2.3 -0.5 4.7 -1.7 l4.5 -2.2 -0.6 5.4 -0.6 5.4 4.8 -0.6 4.8 -0.5 -3.9 5.2 c-3.1 4.3 -3.5 5.5 -2.4 6.2 0.8 0.5 1.7 0.9 2 0.9 0.4 0 0.9 0.7 1.3 1.5 0.7 1.8 0 1.8 -4 0.1z"/>
  <path d="M386.3 1212 c-3.1 -1.3 -5.3 -5.1 -7.9 -13.8 -1.3 -4.3 -5 -15.6 -8.3 -25.2 -20.3 -59.5 -34.2 -100.3 -36.1 -105.5 -5.3 -15 -6.6 -28.5 -3.5 -36.3 1.9 -4.7 7.7 -10.1 14 -13.2 5.5 -2.7 16.3 -2.7 22.2 0 5.5 2.4 12.3 9.3 15 15 1.1 2.5 5.1 13.5 8.8 24.5 3.7 11 11.4 33.1 17 49 14.9 42.2 23.5 69.7 23.5 75.1 0 2.1 -0.4 2.4 -3.9 2.4 -2.1 0 -4.4 -0.6 -5 -1.4 -0.6 -0.7 -5 -13.1 -9.6 -27.5 -18.6 -57.2 -37.4 -110.5 -42.2 -119.3 -3.5 -6.5 -7.8 -9.2 -14.8 -9.2 -6.1 0 -11.7 3 -14.3 7.7 -2.9 5.5 -2.2 16.4 2 28.2 2 5.5 8.5 24.4 14.6 42 10.1 29 15.6 44.9 28.7 82.5 4.6 13.3 6.1 20.5 5 23.9 -0.7 2.3 -1.7 2.5 -5.2 1.1z"/>
  <path d="M1230 1207.4 c-0.6 -1.4 -1 -3.1 -1 -3.8 0 -2.4 5.1 -21.5 18.5 -68.6 2.4 -8.5 6.9 -24.7 10 -36 3.1 -11.3 7.1 -25.4 9 -31.5 8 -26 9.3 -36.1 5.6 -43.3 -5.1 -10 -22 -11.5 -29 -2.6 -2.3 3 -5 11.4 -13.6 42.4 -8.3 30.2 -15.2 54.7 -19.5 70 -2.1 7.4 -5.3 18.9 -7 25.5 -5.8 22.5 -7 24.5 -12.7 23 -2.5 -0.6 -2.6 -0.8 -2 -6.5 1 -9.6 9.4 -42.1 21.2 -82 2.4 -8 6.4 -22.1 9 -31.5 2.5 -9.3 5.7 -21 7.1 -26 6.2 -22.3 14.3 -31.2 29.6 -32.3 12.2 -0.9 20.7 3.8 25.9 14.4 4.8 9.6 5 16.9 1 32.5 -3.2 12.6 -10.1 37.6 -17.1 61.9 -2.1 7.4 -6.2 22.1 -9 32.5 -15.3 56.6 -16.3 60 -18.7 62.7 -2.4 2.7 -6.1 2.3 -7.3 -0.8z"/>
  <path d="M446.3 1171 c-3 -1.2 -3.3 -2 -10.6 -24.1 -6.5 -19.5 -32.7 -96.1 -36.7 -107.4 -4.4 -12.5 -8 -27 -8 -32.4 0.1 -10.1 5.3 -17.9 15.5 -22.7 2.7 -1.3 6.9 -2.6 9.1 -3 5.3 -0.8 13.5 1.5 19.2 5.4 7.9 5.2 10.3 11.1 11.7 28.2 1.4 17.5 7.5 35.2 17.1 49.5 6.6 9.9 10.7 19.9 22.3 54.1 9.7 28.9 10.8 33.3 9.5 36.8 -0.8 2 -5.7 2.1 -7.3 0.3 -0.6 -0.8 -5.8 -15.1 -11.5 -31.8 -5.7 -16.7 -14.8 -43 -20.1 -58.4 -5.3 -15.4 -11.7 -34.1 -14.2 -41.5 -7.7 -23.2 -11.7 -29.6 -19.9 -31.9 -3.9 -1.1 -7.9 -0.2 -12.9 2.9 -6.7 4.1 -9.5 10.9 -7.7 18.5 1.2 4.9 22.4 66.7 32.2 94 10.7 29.7 17 50.7 17.3 57.8 0.2 6.6 -0.6 7.5 -5 5.7z"/>
  <path d="M1166.6 1169.9 c-3.6 -2.8 -3.4 -5.9 1.3 -21.4 2.1 -7.2 5.1 -17.5 6.6 -23 1.5 -5.5 4.9 -17.6 7.5 -27 2.7 -9.3 6.9 -24.6 9.5 -34 2.5 -9.3 6.4 -22.9 8.6 -30.1 8.8 -29.2 9.1 -41.5 1.1 -47.3 -7.5 -5.3 -17.8 -4.7 -23.8 1.3 -3.7 3.7 -3.4 2.7 -18.4 56.1 -5.5 19.8 -11.8 42.1 -14 49.5 -8.5 29.7 -15 52.7 -16.1 57.3 -1.9 7.7 -7.7 10.1 -9.9 4.1 -1.1 -2.9 0.1 -8.2 12 -50.4 3.3 -11.8 7.4 -26.4 9 -32.5 1.7 -6 5.7 -20.7 9 -32.5 3.3 -11.8 7.2 -25.8 8.6 -31 4.5 -17 7.2 -23 12.5 -28.2 5.9 -5.7 16.2 -9.4 23.5 -8.4 12.4 1.7 23.4 12.6 25 24.9 0.6 4.7 -3 22.3 -9.7 46.7 -8.6 31.5 -14.5 52.6 -21.6 77.5 -4.1 14.3 -8.6 29.9 -9.9 34.8 -3.9 14.5 -6.2 17.3 -10.8 13.6z"/>
  <path d="M1044 1156.5 c-0.8 -1 -1.1 -3.2 -0.7 -6.3 0.5 -4.5 7.5 -30.8 9.6 -36.5 1.1 -2.8 5.7 -5.5 10.3 -6 3 -0.3 2.8 0.6 -2.6 19.8 -2.4 8.3 -4.9 17.4 -5.6 20.2 -2 8.8 -7.4 13.1 -11 8.8z"/>
  <path d="M1094 1155.5 c-2.7 -3.3 1.2 -20.3 19.3 -83 22.2 -77.3 23.1 -81.2 18.5 -87.1 -1.3 -1.6 -3.8 -4.2 -5.5 -5.7 -3.9 -3.4 -4 -4.3 -1 -8.1 2 -2.5 2.8 -2.8 5.3 -2.2 1.6 0.4 4.7 2.7 7 5 9.2 9.7 8.6 24.3 -2.6 61.6 -1.5 5.2 -5.8 20.8 -9.5 34.5 -3.7 13.8 -8.2 30.1 -10.1 36.4 -1.9 6.2 -3.4 12 -3.4 12.8 0 3.1 -7.2 26.7 -9.5 31.3 -3 5.9 -6 7.5 -8.5 4.5z"/>
  <path d="M513.1 1151.6 c-2.8 -2.9 -21 -55.1 -19.7 -56.3 0.8 -0.9 9.1 3.4 11.3 5.8 3.2 3.5 16.3 42 16.3 47.8 0 5.3 -4.1 6.7 -7.9 2.7z"/>
  <path d="M561 1150 c-3.1 -4.3 -5.9 -11.2 -9.7 -23.4 -4.4 -14.4 -4.4 -14.6 1.1 -14.6 3.9 0 4.7 0.4 6.4 3.3 2.3 3.8 10.5 29 10.5 32.3 0 5.7 -5 7.1 -8.3 2.4z"/>
  <path d="M1011 1080 c-22.7 -2.8 -38.7 -16.5 -40.6 -34.8 -0.8 -7.8 0.7 -15.6 5.2 -26.9 2.6 -6.3 3.7 -10.9 4.1 -16.3 0.5 -7.6 0.5 -7.6 -2.3 -8.9 -1.6 -0.7 -5.5 -1.6 -8.6 -1.8 l-5.8 -0.6 -3 6.4 c-1.6 3.5 -4 10.7 -5.4 15.9 -1.4 5.2 -3.8 14.4 -5.5 20.4 -1.7 6 -3.1 13.4 -3.1 16.3 0 4.9 0.3 5.7 4 9.3 6.9 6.7 6.3 12.6 -1.5 16.5 -3.5 1.7 -7.3 2 -31.5 2.7 -39.5 1.3 -64.6 -0.1 -74 -3.8 -3.4 -1.4 -4 -2.1 -4 -4.6 0 -4.4 1.3 -6.1 8.7 -11.5 4.8 -3.5 7.6 -6.4 9.4 -9.9 2.4 -4.4 7.8 -20.9 13 -39.9 1.1 -3.8 3.5 -11.7 5.3 -17.5 1.9 -5.8 6.2 -19.7 9.6 -31 3.4 -11.3 7.2 -23.9 8.6 -28 1.3 -4.1 3.7 -12 5.3 -17.5 1.6 -5.5 5.4 -18.2 8.4 -28.3 8.1 -26.5 8.1 -23.8 0.2 -32.2 -7.5 -8 -7.8 -9.9 -2.7 -15.3 10.5 -11.1 49.5 -18.9 71.1 -14.3 9.5 2 18.8 7.1 22.5 12.3 7.1 10.1 4.7 23 -15.4 85.3 -8.5 26.2 -12 38.3 -12 41 0 1.8 14.8 0.7 18.8 -1.4 4.3 -2.2 6.4 -5.6 11.4 -18.3 11 -27.6 23.5 -40.9 43.7 -46.5 18.3 -5.1 40.5 1.5 50.1 14.8 10.9 15.2 8.8 35.3 -5 47.8 -8.8 7.9 -21.7 10.6 -34.6 7.1 -9.5 -2.6 -13.6 -6 -17.8 -15 -2 -4.1 -4 -7.5 -4.5 -7.5 -1.9 0 -4.6 4.6 -9.1 15.7 l-4.9 11.8 8.7 1.7 c18 3.5 27.6 9.3 32.9 19.7 4.4 8.4 4.5 15.6 0.3 30.1 -1.6 5.8 -3 11 -3 11.7 0 4 7.8 5.8 10.3 2.3 0.7 -1 2.6 -2.4 4.1 -2.9 2.5 -1 2.8 -0.9 4.3 2.6 5.9 14.3 -12.1 35.9 -34.9 41.7 -7.2 1.9 -22.5 2.7 -30.8 1.6z"/>
  <path d="M553 1078.5 c-0.8 -0.2 -4.9 -0.9 -9 -1.5 -17.3 -2.8 -35.5 -12.1 -45.5 -23.2 -9.6 -10.7 -16.6 -26 -18.4 -40.2 -1.2 -9.2 -0.4 -26 1.5 -34.3 2 -8.8 7.5 -22.1 12.5 -30.5 14.4 -24.4 40 -43.4 68.3 -50.7 18 -4.7 48 -5.2 64.1 -1.1 17.6 4.5 32.2 14.3 38.2 25.7 12.3 23.1 0.7 43.8 -27 48.3 -16 2.5 -28.1 -3.7 -34.2 -17.4 -2.2 -4.9 -2.6 -7.6 -2.8 -16.2 -0.2 -5.7 -0.6 -10.6 -0.9 -11 -0.4 -0.4 -4.1 1 -8.3 2.9 -17.9 8.5 -29.1 25.4 -32.6 49.3 -2.2 14.3 2.6 31.3 10.8 38.4 2 1.8 6.2 4.5 9.3 5.9 5.2 2.4 6.4 2.6 20.5 2.6 l15 -0.1 13.9 -5.3 c9.5 -3.5 14.7 -5 16.4 -4.6 2.3 0.6 2.4 0.9 2 6.9 -0.9 14.5 -13.9 31.8 -31.7 42.1 -15.3 8.9 -36.5 14.6 -53.1 14.4 -4.1 -0.1 -8.2 -0.3 -9 -0.4z"/>
  <path d="M738 1078.4 c-25.8 -4.7 -41.2 -12.1 -53.8 -26 -7 -7.6 -12.9 -18.6 -15.8 -29.4 -2.1 -7.8 -2.4 -29.9 -0.5 -40 7.8 -42.2 30.3 -69.1 69.1 -82.8 10.8 -3.8 16.6 -4.9 31.2 -6.1 32.7 -2.8 65 5.5 80.2 20.4 13.2 13.1 16 32.9 7.1 51.1 -4.6 9.4 -12 16.4 -22.8 21.4 -16.7 7.7 -34.5 10.4 -67 9.8 l-20.7 -0.3 0 2.9 c0 6.4 3.2 14.6 7.7 19.6 5.7 6.4 11.5 8.4 24.3 8.4 10.5 0.1 16.9 -1 37.2 -6 7.5 -1.9 14.8 -3.4 16.1 -3.4 3.2 0 3.9 2.7 2.8 10.6 -1.2 8.3 -4.9 15.1 -12.9 23.5 -11.1 11.9 -23.4 19 -40.5 23.6 -7.4 2 -12.1 2.6 -24.2 2.8 -8.2 0.2 -16.1 0.1 -17.5 -0.1z m21.3 -104.8 c6.1 -2.2 10.2 -6.1 14 -13.3 6.3 -12 8.5 -26.1 5.3 -33.8 -1.3 -3 -2 -3.5 -4.7 -3.5 -2.5 0 -4.1 1 -7.2 4.2 -6.8 7.1 -16.6 30.1 -18.3 42.8 l-0.7 5 3.9 0 c2.2 -0.1 5.6 -0.7 7.7 -1.4z"/>
  <path d="M593.9 878.6 c-13.2 -10.6 -22.4 -20.2 -25.1 -26.3 -3.3 -7.2 -3.1 -16.4 0.5 -22.5 1.5 -2.6 4.3 -5.9 6.2 -7.4 10 -7.6 27.9 -7 36.1 1.3 4.3 4.3 6 7.9 8.9 19.3 1.4 5.5 2.6 8.5 3.5 8.5 0.8 0 5.4 -4.9 10.2 -11 13.6 -17 18.2 -20.3 31.1 -22.6 8 -1.5 16.8 -0.2 22.2 3.1 4.1 2.5 7.5 9.2 7.5 14.6 -0.1 13.1 -12.4 22.6 -47 36.4 -8.5 3.4 -20.1 8.2 -25.6 10.6 -14.8 6.4 -15.7 6.3 -28.5 -4z"/>
  <path d="M465.5 857.4 c-20.9 -3.4 -34.6 -12.2 -39.6 -25.3 -1.9 -5 -2 -7.1 -1.7 -19.6 0.4 -11.5 1.1 -16.4 3.8 -27.5 7.4 -30.2 4 -35.8 -22.1 -36.8 l-12.6 -0.5 -0.7 2.9 c-1.8 7.8 -8.2 31.2 -11.3 41.4 -4.4 14.5 -5.5 27.7 -2.8 33.4 1 2 3.9 5.3 6.4 7.2 2.5 2 5.1 4.5 5.8 5.7 3 5.3 0.8 10.7 -5.6 13.9 l-4.6 2.3 -56.5 0 -56.5 0 -4.7 -2.3 c-3.5 -1.8 -5 -3.2 -5.8 -5.7 -1.8 -5.3 0.6 -9.3 9.2 -15.7 4 -3 8.1 -6.4 9 -7.4 3 -3.5 7.1 -12.7 9.3 -21.4 3.8 -14.4 9.4 -34.8 13.5 -49 5.6 -19.6 10.9 -38.2 13.7 -48.5 1.3 -4.9 3.7 -13.3 5.3 -18.5 9.1 -30.1 10.3 -34.7 10.8 -43.1 0.4 -8.3 0.3 -9 -3.3 -16.9 -5.8 -12.8 -3.6 -17.8 8.8 -19.8 3.4 -0.6 32.3 -1.4 64.2 -1.7 77.3 -0.9 97.5 0.5 116.6 8.2 10.3 4.1 20.8 11.1 26.8 17.9 2.3 2.6 6.1 8.6 8.4 13.3 l4.2 8.4 0 13.6 c0 12.5 -0.2 14.1 -2.6 19.9 -9.4 22.1 -22.4 33.5 -46.6 40.7 -5.1 1.6 -9.3 3.1 -9.3 3.4 0 0.4 4 2.4 9 4.5 9.8 4.2 13.9 7.8 17.3 15.5 3.4 7.7 3.4 16.7 -0.2 31.7 -3.4 14.3 -4.1 25.4 -1.7 27.3 0.8 0.6 4.7 1.8 8.7 2.7 4 0.8 7.7 1.8 8.2 2.1 2.5 1.5 -3.9 22.2 -8.7 27.9 -3.5 4.3 -17.3 11.2 -27.6 13.9 -6.4 1.6 -28.5 2.8 -34.5 1.9z m-31.4 -148.9 c9.7 -3.4 14.9 -10.1 20 -25.3 4 -12 4.8 -20.6 2.5 -26.7 -2.1 -5.3 -7.1 -10 -12.3 -11.4 -4.1 -1.2 -16.3 -1.5 -21 -0.5 l-3 0.6 -6.8 27.1 c-3.7 15 -7.4 29.6 -8 32.5 l-1.3 5.2 12.8 0 c8.8 0 14.1 -0.5 17.1 -1.5z"/>
  <path d="M19.5 855 c-9 -1.4 -13.8 -3.1 -16.8 -6.1 -2.4 -2.5 -2.8 -3.5 -2.3 -6.1 0.9 -4.6 3.1 -7.5 8.4 -11.1 2.6 -1.8 6.8 -5.2 9.3 -7.7 4 -3.9 5 -5.9 8.2 -15.5 1.9 -6 5.2 -17.1 7.1 -24.5 2 -7.4 5.4 -19.6 7.5 -27 2.1 -7.4 7.5 -26.5 12 -42.5 4.6 -15.9 10.2 -35.5 12.7 -43.5 2.4 -8 4.9 -16.9 5.5 -19.9 1.8 -8.3 0.7 -17.5 -3 -25.1 -3.8 -8 -3.9 -11.1 -0.4 -15 5.5 -6 8.7 -6.2 90.3 -5.7 68.5 0.3 73 0.5 81.5 2.4 40.7 9.2 59.9 35.5 54.1 74.1 -3.3 21.7 -15.6 43 -33.4 57.8 -8.1 6.7 -25.2 15.2 -38 18.9 -16.4 4.7 -24.8 5.6 -54.7 6 -15.4 0.3 -29.4 0.7 -31.1 1 -2.8 0.5 -3.4 1.2 -5.2 6.3 -5.4 15 -11.2 38.1 -11.2 44.4 0 6.4 0.9 8.1 8.5 15.4 5.1 4.9 6.4 6.8 7 10.3 0.5 3.3 0.3 4.6 -1 6.1 -2.5 2.7 -10.6 5.9 -16.6 6.4 -9.6 0.9 -93.2 1.4 -98.4 0.6z m153.4 -126.6 c8.5 -2.8 15.5 -10 20.7 -20.9 9 -19.1 15 -45.2 12.4 -54.4 -2.6 -9.7 -11.3 -14.1 -27.6 -14.1 l-9.3 0 -2.5 8.3 c-1.3 4.5 -5 17.4 -8.1 28.7 -4.6 16.6 -9.9 35 -15.2 53.4 -0.5 1.8 0.1 1.9 11.8 1.3 8 -0.3 14.3 -1.1 17.8 -2.3z"/>
  <path d="M1412.5 855 c-34 -0.4 -48.8 -0.9 -50.7 -1.7 -9.6 -4.3 -8.9 -13.3 1.6 -20.8 6.7 -4.8 12.6 -10.6 15.1 -14.9 1.3 -2.3 4.6 -12.2 7.4 -22.1 2.8 -9.9 7.1 -25 9.5 -33.5 2.4 -8.5 7 -24.7 10.1 -36 3.2 -11.3 9.3 -33.1 13.7 -48.5 4.4 -15.4 8.4 -29.8 9 -31.9 1.2 -5.1 -0.3 -12 -4.2 -19.4 -3.3 -6.3 -3.8 -11.6 -1.4 -15 4.1 -6 8.9 -6.4 64.3 -6.3 51.6 0.1 55.7 0.5 59.1 4.9 4.4 5.5 1.6 11.1 -10 19.6 -6.9 5.1 -9.2 7.5 -11 11.3 -2.8 6.1 -8.2 22.6 -12.1 37.3 -3.6 13.6 -9.1 33 -16.1 56.5 -11 37.5 -12.7 43.6 -16.7 57.5 -5.8 20.7 -6.6 25 -5 26.1 1.9 1.2 19.1 1.1 26.8 -0.2 3.5 -0.5 7.7 -1.7 9.4 -2.6 5 -2.6 12.3 -10 25.4 -26.1 19 -23.2 26.4 -29.1 39.4 -31.4 7.6 -1.3 15.5 0.2 19.2 3.6 3.4 3.1 5.1 9.7 4.3 16.6 -0.8 6.7 -7.6 33.3 -11.7 46.2 -3.2 9.9 -6.1 15.4 -10.6 20.3 -10.7 11.6 -19.9 12.2 -164.8 10.5z"/>
  <path d="M814.5 854.3 c-6.4 -0.8 -11.3 -3.3 -12.4 -6.3 -2 -5.9 1 -11.6 8.9 -17 12 -8.2 15.9 -14.8 21 -35.5 2.1 -8.8 6.2 -23.4 14 -50.5 2.2 -7.4 4.8 -16.9 5.9 -21 1.1 -4.1 3.1 -11.1 4.5 -15.5 6 -19.4 12.6 -42.6 14.2 -49.4 2.2 -9.8 1.5 -18.1 -2.5 -29.9 -5 -15 -4 -18.9 5.7 -21.9 5 -1.6 10.1 -1.8 40.7 -1.8 33.7 0 35.2 0.1 39.6 2.1 8.6 4 10.4 8.7 32.2 84.4 2.5 8.5 4.8 16.9 5.1 18.5 1.2 5.1 11.7 37 12.5 37.8 0.5 0.5 4.6 -3.3 9.1 -8.5 7.3 -8.2 52.8 -64.7 82 -101.8 12.6 -16 17 -20.7 24.2 -25.5 8 -5.3 13.7 -6.4 36.8 -7.5 32.4 -1.5 62.4 0.9 65.1 5.2 2.9 4.4 -1.1 13.1 -8.1 17.6 -7 4.6 -11.8 9 -13.5 12.3 -0.8 1.5 -4.2 12.4 -7.5 24.1 -3.4 11.7 -8.1 28.3 -10.5 36.8 -2.4 8.5 -8.5 30.1 -13.5 48 -5.1 17.9 -11.4 40.2 -14.1 49.5 -2.7 9.4 -4.9 18.5 -4.9 20.3 0 1.9 1.8 7.7 4 12.9 2.2 5.3 4 10.5 4 11.5 0 3.5 -2.1 6 -6.8 8.1 -4.2 1.9 -7.6 2.2 -33.6 3.1 -35 1.1 -77.2 -0.1 -78.6 -2.4 -0.5 -0.8 -1.2 -4.4 -1.5 -8 -0.3 -3.6 -0.8 -7.5 -1 -8.6 -0.4 -1.7 0.7 -2.9 5.6 -5.9 10.2 -6.3 12.6 -10.8 20.5 -38.8 2.5 -8.9 6.5 -22.9 8.9 -31.2 8.1 -28.2 12.7 -45.5 12.3 -46.6 -0.4 -1.3 -10.6 10.7 -39.3 46.6 -24.3 30.2 -32.7 40.5 -33.1 40.5 -0.1 0 -3.8 -1.5 -8.1 -3.3 -13.1 -5.7 -21.1 -7.2 -36.3 -7.2 -7.5 0.1 -17.9 0.8 -23.5 1.7 -5.5 0.9 -13.4 2 -17.6 2.3 l-7.6 0.7 -1 -3.8 c-0.6 -2.2 -4.7 -15.1 -9 -28.9 -4.4 -13.7 -9.5 -29.9 -11.3 -35.8 -1.9 -6.1 -3.7 -10.2 -4 -9.5 -0.4 0.7 -1.3 3.6 -2 6.3 -0.6 2.8 -3.4 12.7 -6.1 22 -15.7 55.2 -19.9 70.8 -19.9 74.2 0 2.1 0.9 7 2 10.8 2.2 7.8 2.5 13.2 1 18.7 -1.6 5.8 -6.6 6.8 -30.4 6.7 -10.5 -0.1 -20.4 -0.4 -22.1 -0.6z"/>
  <path d="M1208.6 853.9 c-13.9 -1.2 -17.9 -4.4 -15.6 -12.8 1.1 -4.1 3.8 -6.8 12.3 -12.5 6.9 -4.7 9.3 -8.4 14 -22.6 3.5 -10.4 17.4 -58.8 28.2 -98 3.1 -11.3 7.4 -26.1 9.5 -33 5.1 -16.8 8 -29 8 -34 0 -2.3 -1.5 -8.1 -3.5 -13.1 -1.9 -5 -3.5 -10.6 -3.5 -12.3 0 -3.7 2.7 -6.8 7.5 -8.6 8.8 -3.4 102.7 -3.2 113 0.2 4.7 1.6 7.1 5.2 6.1 9.3 -0.8 3 -3.5 5.9 -15.1 16.1 -6.3 5.5 -7.3 6.9 -9.7 13.5 -4.6 12.6 -18.2 59.4 -29.8 102.4 -2.8 10.5 -6.9 24.9 -9 32 -10.2 34 -11.2 43 -5.7 51 6.5 9.5 5.4 16.9 -3 20.8 -4.7 2.2 -5.7 2.2 -49.3 2.3 -24.5 0.1 -48.9 -0.2 -54.4 -0.7z"/>
  <path d="M729 837.8 c0 -7.4 -1.7 -16.9 -4.1 -23.6 -1.8 -4.8 -3.8 -7.3 -12.7 -16 l-10.6 -10.3 9.2 -27.2 c29.1 -85.7 31.8 -124.9 8.8 -124.9 -14.5 0 -25.4 10.2 -37.1 34.7 -8.9 18.5 -20.3 54.4 -27.5 86.5 -4 18.1 -6.6 26.9 -8.5 29 -2.3 2.6 -12 7 -15.4 7 -1.6 0 -6.5 -1.8 -10.8 -4 -4.3 -2.2 -10.5 -4.5 -13.8 -5.1 -9.8 -1.8 -23.4 -0.5 -36 3.4 l-11 3.4 -0.8 -4.1 c-0.5 -2.3 -0.6 -11.1 -0.4 -19.6 0.8 -27.2 7.2 -51.7 20.3 -77.5 24 -47 59.6 -74.3 113.4 -86.9 33.5 -7.9 68.7 -4.1 94 10.1 17.9 10.2 31.7 28.3 36.9 48.9 3.2 12.5 2.9 40.1 -0.5 56.4 -4.9 22.9 -17 52 -29.5 71 -7.4 11.3 -27.2 31.6 -39.9 41 -7.8 5.8 -20.6 13 -23 13 -0.5 0 -1 -2.3 -1 -5.2z"/>
  <path d="M1044.8 635.9 c-3.9 -4 -9.8 -21.9 -16.3 -50.4 -2.3 -9.9 -6.3 -25.8 -19 -74.5 -3.7 -14 -8.8 -34 -11.5 -44.5 -2.7 -10.4 -6.9 -27.1 -9.4 -37 -7.7 -30.1 -16.6 -67.2 -16.8 -70.2 -0.1 -1.5 -0.7 -3.7 -1.4 -4.8 -0.6 -1.1 -2.6 -7.8 -4.3 -15 -1.8 -7.1 -4.5 -18.1 -6.2 -24.4 -3.9 -14.9 -6.2 -28.7 -5.4 -31.9 0.4 -1.5 1.8 -5.1 3.2 -8 l2.5 -5.4 -2.7 -8.9 c-1.7 -5.7 -2.5 -9.8 -2 -11.7 1.2 -5.8 11.8 -13.4 22.4 -16.2 2.8 -0.7 10.2 -1.1 20 -0.8 l15.6 0.3 10.5 -4.4 c17 -7.1 22.4 -9 39.2 -13.2 37.8 -9.5 80 -12.3 104.3 -6.9 17 3.8 25.2 9.6 30.9 22.1 3.5 7.7 13.4 44.3 14.6 53.9 0.3 3 1.4 7 2.3 8.8 2 3.6 0.4 3.5 19.5 1.1 21.1 -2.6 46.4 1.7 65.7 11.3 34.9 17.4 58.5 48.7 67.1 88.8 2.6 12.3 2.4 33.5 -0.5 45.5 -4.5 18.8 -10.3 32.5 -20.3 47.3 -7.3 11 -22.4 25.6 -32.6 31.5 -6.9 4.1 -27.7 13.7 -34.6 16.1 -1.6 0.5 -1.8 1.3 -1.2 5.4 0.3 2.6 1.5 7.6 2.6 11.2 1.1 3.6 2.3 8.6 2.6 11.1 0.6 4.5 0.5 4.7 -2.2 5.3 -5.6 1.1 -26.7 3.6 -27.2 3.2 -0.2 -0.3 0.6 -1.9 1.9 -3.7 8.7 -12.3 9.1 -24.8 1.4 -51 -1.9 -6.4 -4.5 -16.1 -5.9 -21.5 -3.3 -13.9 -24.4 -96.9 -30.6 -120.9 -2.9 -11 -5.8 -22.5 -6.5 -25.5 -2.8 -12.5 -8.6 -33.3 -10 -36.1 l-1.6 -3 -5 4.5 c-5.9 5.3 -9.3 6.3 -14.3 4.2 -3 -1.3 -3.6 -2 -3.6 -4.6 0 -3.3 0.9 -4.3 10 -11.3 6.8 -5.3 7.4 -8 3 -13 -1.6 -1.9 -5.1 -4.5 -7.6 -5.6 -4.2 -2 -32.5 -9.2 -41.9 -10.7 -4.8 -0.7 -11.8 1.1 -24.9 6.6 -14.5 6 -33.8 11.8 -50 15 -30.4 6 -34.1 6.4 -54.6 6.4 -19.5 0 -22.1 -0.3 -40.2 -4.9 -2.3 -0.6 -2.8 -0.4 -2.8 1.1 0 1 2.5 12.2 5.6 24.9 3.1 12.6 6.2 25.2 6.8 28 1.1 4.5 1.5 5 4.7 5.7 5.3 1.3 34.3 1.2 45.4 -0.2 11.9 -1.4 40.4 -7 53 -10.4 14.6 -4 35.1 -11 49.2 -17 13.2 -5.6 18.5 -6.6 22.4 -4.6 2.1 1.2 2.5 4.4 0.9 8.5 -1.3 3.4 -8.1 6.5 -35.4 16.2 -44.7 15.8 -73.8 21.2 -117.1 21.6 l-17.1 0.2 1.7 7.5 c0.9 4.1 7.2 29.1 13.9 55.5 6.8 26.4 12.8 50.5 13.5 53.5 1.4 6.1 7.2 29.2 14.1 55.5 2.4 9.4 5.1 20.4 5.9 24.5 2.4 11.5 7.3 27.9 10.1 33.8 1.8 3.6 4.5 6.9 8.7 10.4 3.4 2.8 6.4 5.5 6.6 6 0.3 0.8 -6.9 10.7 -13.7 18.7 l-2.9 3.5 -2.5 -2.5z m238.4 -137.1 c25.6 -9.8 46.4 -36.3 51.8 -65.9 1.5 -8 1.5 -26.3 0 -35.4 -4 -25.1 -23.1 -49.6 -48.3 -62 -11.7 -5.7 -22.4 -8.5 -35.7 -9.2 -10.5 -0.6 -24.4 1 -25.6 2.8 -0.3 0.5 1.1 6.9 3 14.1 5 19 11.6 45.1 13.6 53.8 2.9 12.2 25 99.2 26.1 102.8 1 3.1 1.3 3.3 4.2 2.6 1.8 -0.3 6.7 -2 10.9 -3.6z"/>
  <path d="M573.2 610.7 c-4.7 -4.8 -5.2 -5.7 -5.2 -9.7 0 -2.5 1.6 -11.9 3.5 -21 1.9 -9.1 5.5 -26.4 7.9 -38.5 2.5 -12.1 6.2 -29.2 8.1 -38 5.3 -24.1 12.9 -59.9 16.9 -79.5 3.3 -15.7 9.6 -51.8 9.6 -54.6 0 -0.7 -7.9 -0.9 -26.2 -0.6 -38.6 0.6 -58.9 -1.7 -93.8 -10.9 -16.8 -4.4 -40.6 -12.5 -47.5 -16.2 -5.7 -3.1 -6 -3.4 -5.9 -6.9 0.3 -7.9 4 -8.5 18.9 -3.2 36.5 13.2 70.4 20.9 102.4 23.5 15.1 1.1 53.5 -0.3 55.7 -2.2 0.6 -0.5 1.4 -3.5 1.8 -6.6 0.4 -3.1 2 -10.9 3.5 -17.2 1.6 -6.4 3.4 -14.1 4 -17.1 1.2 -6.1 1.8 -17.6 1 -18.5 -0.4 -0.3 -5.3 0.6 -11 1.9 -16 3.8 -25.8 4.9 -45.4 4.8 -27.3 0 -56.7 -4.8 -84.6 -13.8 -12.9 -4.2 -14.6 -4.5 -18 -3.5 -2.1 0.6 -5.1 2.2 -6.6 3.5 -6 5 -18.2 12.2 -31.9 18.8 -7.9 3.8 -14.4 7.4 -14.4 8 0 0.6 0.7 2 1.6 2.9 3.7 4.1 0.7 10.9 -4.9 10.9 -1.7 0 -4.9 -1.1 -7.2 -2.4 l-4.1 -2.5 -3.1 2 c-4.5 2.9 -7.2 9.2 -10 23.7 -2.6 13.6 -8.8 43.2 -15.8 76.2 -9.2 42.4 -20.1 98.2 -22.4 114 -0.5 3.6 -1.5 11.8 -2.1 18.3 l-1.2 11.7 -9 0 c-8.8 0 -9 0 -8.5 -2.2 0.3 -1.3 0.9 -4.5 1.2 -7.3 0.4 -2.7 0.9 -5.8 1.1 -6.7 0.6 -2.2 -2.7 -3.9 -13.1 -6.8 -22 -6.1 -48.9 -26.2 -63.3 -47.3 -14.3 -20.8 -21.4 -44.1 -21.5 -69.7 0 -43.3 20.7 -81.3 57.3 -104.9 9.8 -6.4 21.6 -11.7 32.6 -14.8 9.5 -2.6 10.9 -2.7 34.1 -2.8 l24.3 0 1.4 -6.5 c0.8 -3.6 2.4 -11.9 3.5 -18.5 3.2 -18.6 8.7 -40.8 11.4 -46.1 6.6 -13 22.1 -20.2 49.7 -23.4 16 -1.9 47 -0.7 65.5 2.4 15.4 2.6 24.5 3.3 24.5 1.7 0 -1.8 16.2 -17.1 22.7 -21.4 11.1 -7.3 18.4 -10 28.9 -10.5 12 -0.6 14.8 0.5 22 8.1 10.7 11.3 12.9 11.8 25 5.8 4.4 -2.1 8.7 -4.1 9.7 -4.4 3.7 -1.3 4.5 -8.1 3.3 -28.8 l-0.8 -13.6 -6.9 -2.2 -6.9 -2.2 0 -4 c0 -5.8 2.1 -10 7.5 -14.6 l4.7 -4 -1.7 -21.1 c-2.5 -30.9 -0.6 -42.7 9.1 -56.9 2.2 -3 5.7 -7.1 7.9 -9 5.2 -4.5 16.7 -10.1 23.1 -11.2 3 -0.6 50.7 -1 114.5 -1.1 107.3 -0.2 109.5 -0.1 117.2 1.9 22.3 5.9 34.7 18.5 39.3 40.2 1.3 6.1 1.5 11.3 1 28.9 -0.3 11.8 -0.9 22.9 -1.2 24.5 l-0.5 3 1.3 -2.5 c1.9 -3.5 5.5 -5 12.3 -5 7.2 0 13 2.4 16.8 6.9 3.6 4.3 4.2 7.2 2.3 11 -3.3 6.2 -12.3 9.9 -25.6 10.4 l-6.5 0.2 -0.5 -6 c-0.4 -4.4 -0.8 -1.5 -1.3 11 -0.5 9.4 -1.3 23.1 -1.8 30.5 -1.2 17.7 -1.1 29.7 0.1 30.5 0.6 0.4 1 -3.6 1 -11.2 0 -13.7 0.6 -15.1 7.8 -18.7 7.6 -3.7 17 -5.9 25.5 -5.9 6.9 0 8.7 0.4 14.5 3.4 7.3 3.7 11.5 8.6 11 12.9 -0.3 2.3 -1.1 2.7 -10.9 5.1 -5.9 1.4 -12.6 3.6 -15 4.9 -6.6 3.4 -16.1 11.3 -23.8 19.8 -3.9 4.2 -7.3 7.4 -7.6 7 -0.3 -0.3 -0.8 -2.3 -1.1 -4.4 -1.4 -10.8 -1.5 -11 -2.7 -8.9 -0.7 1.3 -1.5 16.2 -2.1 43.5 -1.3 58.8 1.1 148.9 6 218 2.7 38.5 2.9 49.7 1 58.3 -3.1 13.6 -11.9 27.3 -20.5 31.6 -3.3 1.7 -15.1 3.8 -15.1 2.8 0 -0.3 3.8 -3.3 8.4 -6.7 13.7 -10.1 19.3 -19.5 21.6 -36.1 1.2 -8.7 1 -15.1 -1.5 -39.4 -2.3 -21.7 -4.4 -61.2 -5.5 -104.5 -0.6 -21.7 -1.3 -41 -1.6 -42.7 l-0.6 -3.3 -6.7 0 c-9.2 0 -15.3 2.2 -19.5 7.2 -7.6 8.8 -7.1 1.1 -7.2 117.3 0 77 -0.3 104.6 -1.2 106.1 -1.1 2 -2.1 2.2 -18.9 2.6 -16 0.5 -18.7 0.8 -26.8 3.4 l-9 2.8 -29.5 0.1 -29.5 0 -9.5 -3.2 c-22.5 -7.7 -38.9 -9.8 -64.2 -8.3 -8.9 0.6 -18.3 0.7 -21 0.4 l-4.8 -0.7 -0.2 -104.6 c-0.3 -103.8 -0.3 -104.6 -2.4 -109.1 -4.4 -9.5 -12.4 -14 -25.1 -14 -3.5 0 -6.3 0.1 -6.3 0.3 0 0.1 -0.5 14.2 -1 31.2 -0.9 31.8 -2 53 -4.6 95 -3.4 55.3 -3.5 61 -1.9 69.3 0.9 4.2 2.7 10 4.1 12.9 2.5 5.2 12.4 15.4 18.3 18.9 4.9 2.9 3.6 5.4 -2.8 5.4 -5 0 -15.2 -9 -20.4 -18.1 -6.7 -11.8 -8 -23.4 -6.2 -55.9 0.8 -13.5 1.9 -34.4 2.5 -46.5 0.5 -12.1 1.7 -35.3 2.5 -51.5 3.5 -70.4 4.4 -120.7 2.5 -141.7 -1 -11.1 -1.6 -14.4 -2.9 -14.2 -0.6 0 -12.1 22.9 -12.1 24.1 0 0.4 1.4 3.7 3.2 7.5 4.7 9.9 4.8 16.8 0.8 35.8 -1.7 8.3 -3.8 18.8 -4.6 23.5 -0.8 4.7 -2.5 12.3 -3.8 17 -1.3 4.7 -3.1 12.8 -4.1 18 -0.9 5.2 -3.6 19 -6 30.5 -2.4 11.6 -4.6 22.8 -4.9 25 -0.4 2.2 -2.2 11.4 -4.1 20.5 -4.9 22.9 -21.4 105.5 -23.5 117 -1 5.2 -3.4 16.9 -5.3 26 -1.9 9.1 -4.1 19.8 -4.8 23.8 -0.7 3.9 -1.5 7.2 -1.8 7.2 -0.4 0 -3 -2.4 -5.9 -5.3z m162.2 -63.7 c1.4 -0.5 3.3 -2.4 4.2 -4.2 1.6 -3 1.7 -7.8 1.5 -52.8 -0.1 -27.2 -0.5 -50.6 -0.8 -52 -1.2 -5.1 -3.3 -7 -7.5 -7 -5 0 -9.1 2.1 -10.6 5.5 -0.9 1.9 -1.2 15.5 -1.2 50.4 0 39.9 0.3 48.6 1.5 52.9 2.2 7.3 6.4 9.7 12.9 7.2z m37.4 -2.4 c1.3 -1.2 2.7 -4 3.1 -6.2 0.4 -2.1 0.7 -25.3 0.7 -51.4 -0.1 -41.9 -0.3 -47.9 -1.8 -51.2 -2.5 -5.7 -7.1 -7.3 -12.7 -4.4 -5.2 2.7 -5.3 3.4 -5.7 54.1 -0.4 51.9 0 55.8 5.2 60.3 3.3 2.9 7.7 2.4 11.2 -1.2z m34.2 0.6 c1.9 -1.9 3 -4.3 3.5 -7.3 0.3 -2.4 0.5 -26.1 0.3 -52.6 -0.3 -47.1 -0.3 -48.2 -2.4 -51 -4.5 -6.1 -11.3 -5.5 -14.8 1.2 -2.1 3.9 -2.1 5.2 -2.1 54.5 0 47.1 0.1 50.8 1.8 53.3 3.4 5.3 9.5 6.1 13.7 1.9z m33.5 1.4 c2.7 -1.1 3.6 -2.3 4.5 -5.5 0.7 -2.7 1 -20.3 0.8 -54 -0.3 -48.7 -0.4 -50 -2.4 -52.7 -3.7 -5.1 -12.1 -5.3 -15.2 -0.6 -1.5 2.4 -1.7 7.6 -1.7 54.7 0 48.6 0.1 52.3 1.8 54.8 2.9 4.5 6.7 5.5 12.2 3.3z m35.2 -0.6 c2.1 -1.2 3.6 -3.2 4.3 -5.7 0.8 -2.7 1.1 -18.6 0.8 -54 l-0.3 -50.1 -2.3 -2.5 c-3.2 -3.3 -6.4 -4 -10.6 -2.3 -6.7 2.8 -6.6 2 -6.6 56.3 0 31.3 0.4 50.2 1.1 52.6 2 7.5 7.2 9.6 13.6 5.7z m-535.3 -35.7 c0.7 -5.8 4.8 -25.9 13.7 -67.3 15.7 -73.1 19.9 -94.5 19.9 -101 l0 -4 -8.2 -0.2 c-28.9 -0.8 -40.7 2 -58.5 13.8 -19.2 12.7 -32.5 31 -38.4 52.9 -3.1 11.3 -3.2 30.6 -0.2 42.5 6.2 24.5 20.3 45.3 39.2 57.5 10.2 6.6 22.1 11.3 29.2 11.4 2.5 0.1 2.7 -0.3 3.3 -5.6z m396.4 -206.3 c9.6 -2.1 16.2 -10.7 16.2 -21.2 0 -3.1 -0.6 -7.1 -1.4 -9 -1.9 -4.4 -8.3 -10.2 -13.1 -11.8 -8.5 -2.8 -20.1 1.5 -25.3 9.2 -2.3 3.6 -2.7 5.2 -2.7 11.2 0 5.9 0.5 7.9 2.7 11.8 2.9 4.9 7.9 8.6 13.2 9.8 4.5 1.1 5 1.1 10.4 0z m75.7 -2.3 c8 -4.4 12 -15.1 9.2 -24.8 -2 -6.7 -7.5 -13.3 -12.4 -15 -5.2 -1.7 -13.5 -0.5 -18.9 2.6 -11.8 6.9 -14.5 20.1 -6.4 31.3 6.4 8.8 18.5 11.3 28.5 5.9z m69.2 0.1 c7.4 -3.4 10.9 -10.9 10 -21 -1.4 -16.2 -15.6 -24.3 -30.3 -17.4 -9.8 4.5 -14.2 14.8 -11.1 25.6 3.9 13.4 18 19.1 31.4 12.8z m-5.5 -74.9 c22.1 -1.7 32.2 -8.4 39 -25.9 1.9 -5.1 2.2 -8.1 2.8 -41 0.8 -37.1 0.1 -54 -2.5 -62.7 -2.4 -8 -9 -16.9 -15.5 -20.9 -11.6 -7.1 -9.1 -6.9 -100.5 -6.9 l-82 0 -6.7 2.4 c-8.8 3.2 -15.5 8.4 -19.6 15.1 -6.5 10.9 -6.6 11.3 -7 56.9 -0.4 45.3 0.1 51 4.8 60.9 3.7 7.9 8.7 13.2 15.2 16.4 5.4 2.6 17.2 5.6 24.3 6 11.4 0.8 137.7 0.5 147.7 -0.3z"/>
  <path d="M710.2 191.3 l-2.6 -2.6 3.9 -1.8 c3.2 -1.4 7 -1.8 18.7 -1.8 l14.6 -0.1 1 2.8 c0.5 1.5 1.3 3.5 1.7 4.5 0.7 1.6 -0.5 1.7 -16.9 1.7 l-17.7 0 -2.7 -2.7z"/>
  <path d="M767 189.5 l0 -4.5 4.5 0 4.5 0 0 4.5 0 4.5 -4.5 0 -4.5 0 0 -4.5z"/>
  <path d="M791.5 192.8 c-4.5 -2.6 -4.5 -4.4 0.1 -6.3 2.7 -1.1 7.4 -1.5 18 -1.5 l14.4 0 1.5 3.6 c0.8 2 1.5 4 1.5 4.5 0 1.4 -33.1 1.1 -35.5 -0.3z"/>
  <path d="M849.6 191.9 c-1.4 -1.1 -2.6 -2.4 -2.6 -2.9 0 -0.4 1.8 -1.5 4 -2.4 3 -1.2 7.5 -1.6 18.1 -1.6 l14 0 1.5 3.5 c0.7 1.9 1.4 3.9 1.4 4.5 0 0.6 -5.9 1 -16.9 1 -15.5 0 -17 -0.2 -19.5 -2.1z"/>
  <path d="M887.3 190.3 c-1.1 -2.7 -1.8 -7.5 -2.1 -16.1 l-0.4 -12.4 3.8 -3.9 c5.7 -5.8 6.4 -4.2 6.4 14.2 0 15.2 -0.7 18.6 -4.1 20.7 -1.7 1.1 -2.1 0.8 -3.6 -2.5z"/>
  <path d="M748.5 189.4 c-1.1 -2.6 -1.5 -7.3 -1.5 -16.3 l0 -12.7 3.3 -3.2 c5.1 -5 5.7 -3.5 5.7 15.3 0 12.9 -0.3 16.5 -1.6 18.3 -2.2 3.2 -4.2 2.7 -5.9 -1.4z"/>
  <path d="M827.6 188.3 c-1.1 -3.2 -1.6 -8.2 -1.6 -15.8 l0 -11.1 3.3 -3.2 c1.8 -1.8 3.8 -3.2 4.5 -3.2 1.5 0 1.7 33.2 0.2 36.1 -1.9 3.5 -4.7 2.3 -6.4 -2.8z"/>
  <path d="M708 170.9 c0 -16.9 0.7 -18.5 6.1 -13.3 2.9 2.7 2.9 2.9 2.9 13.9 l0 11.1 -4.5 1.6 -4.5 1.7 0 -15z"/>
  <path d="M787.6 185.2 c-0.8 -0.7 -0.8 -26.6 0 -28.6 0.9 -2.3 2.4 -2 5.6 1.1 2.7 2.6 2.8 2.9 2.8 13.8 l0 11.2 -3.9 1.5 c-2.2 0.9 -4.2 1.3 -4.5 1z"/>
  <path d="M847 170.5 c0 -17.3 0.3 -17.9 5.8 -12.2 l3.3 3.4 -0.3 10.3 -0.3 10.3 -4.2 1.8 -4.3 1.8 0 -15.4z"/>
  <path d="M750.2 148.7 l-3.2 -3.3 0.1 -12.9 c0 -9.9 0.5 -13.9 1.7 -16.8 l1.7 -3.9 2.8 2.2 2.7 2.1 0 16.9 c0 19.4 -0.6 21.1 -5.8 15.7z"/>
  <path d="M708.7 150.3 c-0.4 -0.3 -0.7 -7.4 -0.7 -15.6 0 -13.8 0.1 -14.9 1.8 -14.2 0.9 0.4 2.9 1.2 4.5 1.7 l2.7 1 0 10.6 c-0.1 10.4 -0.1 10.8 -3 14 -3 3.2 -4.1 3.8 -5.3 2.5z"/>
  <path d="M787.6 149.4 c-0.8 -2 -0.8 -27.9 0 -28.6 0.3 -0.3 2.3 0.1 4.5 1 l3.9 1.5 0 11.2 c0 10.9 -0.1 11.2 -2.8 13.8 -3.2 3.1 -4.7 3.4 -5.6 1.1z"/>
  <path d="M829.2 147.7 l-3.2 -3.3 0 -11.6 c0 -9.4 0.4 -12.5 2 -16.3 2 -4.6 2.1 -4.7 4.3 -3.2 2.1 1.4 2.2 1.9 2.2 19.2 0 11.5 -0.4 18 -1 18.2 -0.6 0.2 -2.5 -1.2 -4.3 -3z"/>
  <path d="M847.7 150.3 c-0.4 -0.3 -0.7 -7.3 -0.7 -15.4 l0 -14.8 4.5 1.7 4.5 1.6 0 10.6 0 10.6 -3.3 3.2 c-3.5 3.4 -4 3.6 -5 2.5z"/>
  <path d="M888.1 147.6 l-3.3 -3.4 0.4 -12.4 c0.5 -14.6 2.4 -20.6 5.9 -18.8 3.3 1.8 4 5.6 3.7 21.9 -0.3 17.7 -0.9 18.7 -6.7 12.7z"/>
  <path d="M711.6 119 l-3.9 -1.8 2.6 -2.6 2.6 -2.6 17.5 0 17.5 0 -1.6 4.5 -1.5 4.5 -14.6 -0.1 c-12 0 -15.4 -0.4 -18.6 -1.9z"/>
  <path d="M791.8 119.3 c-4.3 -1.8 -4.6 -2.5 -1.8 -5.3 1.8 -1.8 3.3 -2 19.6 -2 l17.5 0 -0.7 2.3 c-2.2 7.3 -0.8 6.7 -16.6 6.6 -10.4 -0.1 -15.3 -0.5 -18 -1.6z"/>
  <path d="M851 119.3 c-4.7 -2 -4.7 -2 -2 -4.8 2.3 -2.5 2.5 -2.5 19.7 -2.5 11.2 0 17.3 0.4 17.3 1 0 0.6 -0.7 2.6 -1.4 4.5 l-1.5 3.5 -14.3 -0.1 c-10.4 0 -15.2 -0.5 -17.8 -1.6z"/>
  <path d="M1070 589.1 c-7.8 -2.4 -13.6 -7.8 -17.4 -16.1 -1.4 -3 -4.6 -13.6 -7.1 -23.5 -2.6 -9.9 -6.4 -24.5 -8.5 -32.5 -15.1 -58.3 -25.8 -102.8 -26.7 -111.7 -0.6 -5.7 0.6 -8.3 3.8 -8.3 2.8 0 4.9 4 7.6 14.3 4.8 18.2 22.6 88.7 28.9 114.2 10.8 43.8 12.2 47.6 18.7 51.6 4.3 2.6 12.7 2.5 18.2 -0.1 5.9 -2.9 8 -6.9 7.8 -15.5 -0.1 -8 -0.8 -11 -9.3 -44 -22.9 -88.4 -28.4 -110.9 -27.6 -113.8 1 -4 3.8 -5.1 7 -2.6 3.3 2.6 3.5 3.5 20 68.9 7.4 29.4 14.2 55.8 15.1 58.5 3 9.4 6.5 26.8 6.5 32 0 8.3 -2.6 14.3 -8.8 20.2 -7.2 7 -12.3 9.3 -19.8 9.2 -3.2 0 -7 -0.4 -8.4 -0.8z"/>
  <path d="M544.3 586.2 l-4.2 -2.8 3.4 -2.7 c4.7 -3.8 9.1 -13.5 11 -24.2 0.8 -4.9 4.7 -24.5 8.6 -43.5 3.8 -19 8.1 -40.1 9.4 -47 1.3 -6.9 3.7 -18.6 5.3 -26 1.6 -7.4 3.5 -16.9 4.2 -21 1.7 -11.2 4 -18.7 6.2 -20.7 1.8 -1.6 2.2 -1.6 4.6 -0.2 3.7 2.1 4 7.5 0.8 20.2 -1.4 5.6 -3.4 14.9 -4.5 20.7 -1.1 5.8 -5.2 26 -9.1 45 -3.9 19 -7.3 36.1 -7.6 38 -0.3 1.9 -1.5 7.6 -2.6 12.5 -1.1 5 -3.2 15.5 -4.8 23.5 -1.5 8 -3.5 16.1 -4.3 18 -1.8 4.1 -9.3 13 -11 13 -0.7 0 -3.1 -1.3 -5.4 -2.8z"/>
  <path d="M509.8 572.2 c-3.7 -1.2 -4.8 -2 -4.8 -3.6 0.1 -8.5 7.8 -50.8 17 -93.1 2.1 -9.9 6 -28.3 8.6 -41 6.6 -32.6 6 -30.9 11.2 -31.3 l4.2 -0.3 0 3.8 c0 10.2 -3.3 28 -15 80.3 -7.2 32.3 -13.2 63.4 -13.6 71.5 -0.9 14.1 -1 14.9 -1.9 15.1 -0.6 0.1 -3.1 -0.5 -5.7 -1.4z"/>
  <path d="M1125.4 566.8 c-1.6 -3.2 -9.2 -28.9 -11.9 -40.8 -2.9 -12.5 -15.2 -61.5 -19.5 -77.5 -5.6 -21.2 -9 -37.6 -9 -44 l0 -5.5 3.9 0 3.8 0 4.6 16.3 c4.7 16.6 21.6 84.3 24.3 97.1 2.2 10.9 10.3 40.3 13.1 47.9 1.4 3.7 2.3 7.1 1.9 7.4 -0.3 0.3 -2.6 0.9 -5.1 1.3 -4.4 0.7 -4.7 0.5 -6.1 -2.2z"/>
  <path d="M481.7 568.3 c-3.5 -0.4 -3.8 -0.6 -3.3 -3.1 0.3 -1.5 0.8 -5.2 1.1 -8.2 0.7 -6 6.9 -37.3 13.9 -70 8.2 -37.8 11.6 -54.4 13.2 -63.8 1.6 -9.7 3.6 -16.6 5.5 -18.9 1.7 -1.9 5.7 -1.6 6.9 0.6 2 3.8 1 12 -4.4 36.3 -3 13.5 -6.2 28.8 -7.1 33.9 -0.9 5.2 -3.3 17.1 -5.4 26.4 -6.3 28.1 -9.3 42.4 -11.6 55 -2.3 12.9 -2 12.5 -8.8 11.8z"/>
  <path d="M431 565.2 c0 -10.1 4.7 -35.8 14.5 -78.7 1.8 -8.2 4.1 -18.6 4.9 -23 4.8 -24.7 10.7 -54.7 11.6 -59.2 0.6 -2.8 2 -6.3 3.1 -7.7 2.4 -3.1 6.4 -3.4 7.9 -0.7 2.1 4.1 1.8 6.6 -7.8 50.1 -2.2 10.2 -5 23.2 -6.1 29 -1.1 5.8 -4.8 23.8 -8.1 40 -3.3 16.2 -6.9 34.2 -8 39.9 -1.1 5.7 -2.5 11 -3.1 11.7 -0.6 0.8 -2.9 1.4 -5 1.4 -3.6 0 -3.9 -0.2 -3.9 -2.8z"/>
  <path d="M1170 567.3 l-2.5 -0.4 0.3 -10.9 c0.4 -10.2 0.2 -11.6 -3.8 -26.2 -2.4 -8.4 -4.8 -17.8 -5.5 -20.8 -0.7 -3 -3.6 -14.3 -6.3 -25 -2.8 -10.7 -7.8 -30.1 -11.1 -43 -3.4 -12.9 -7.2 -27.5 -8.6 -32.5 -3.2 -11.6 -3.3 -17.8 -0.3 -19.9 3.2 -2.3 4.5 -2 6.3 1.3 2.9 5.7 15.1 51.4 20 75 0.9 4.1 2.9 12 4.4 17.5 12.2 42.4 16.5 63.4 15.9 77.6 l-0.3 7.5 -3 0.1 c-1.6 0.1 -4.1 0 -5.5 -0.3z"/>
  <path d="M384.7 564.9 c-9 -2.1 -16.2 -7.5 -19.4 -14.6 -4.5 -9.9 -3.9 -15.9 7.2 -69.8 2.4 -11.5 5 -24.6 5.9 -29 0.8 -4.4 4.3 -21.3 7.6 -37.5 3.4 -16.2 6.8 -33.1 7.6 -37.4 2.3 -12.9 3.1 -15.2 5.9 -16.4 1.4 -0.7 3.2 -1.2 4 -1.2 4.1 0 3 15.5 -2.9 40.1 -2.4 10.1 -5 22.2 -5.9 26.9 -0.9 4.7 -4.6 22.9 -8.2 40.5 -11.2 54.5 -12.6 61.8 -12.6 69.2 -0.1 5.4 0.4 8.1 1.8 10.4 5.1 8.9 16.7 11 25.8 4.7 5.6 -3.8 7.4 -10 16.5 -56.2 5.5 -27.6 8.7 -43.5 18.5 -91.1 3.7 -18.3 5.1 -20.9 10.4 -20.3 2.4 0.3 2.6 0.6 2.3 4.3 -0.9 11.4 -11.3 68.4 -20.8 114 -9.7 46.5 -10.9 50 -18.6 57 -7.3 6.6 -15.5 8.7 -25.1 6.4z"/>
  <path d="M1211.1 553.9 c-5.7 -1.7 -12.1 -6.8 -15.5 -12.3 -4.4 -7 -5.4 -9.5 -8.1 -20.5 -5.4 -21.7 -13.5 -53.4 -16.8 -65.6 -11 -40.4 -16.7 -66 -16.7 -74.7 0 -4.5 0.2 -4.8 2.5 -4.8 4.6 0 7.1 3.8 9.5 14.6 1.2 5.4 3.3 14 4.5 18.9 1.3 5 8.5 33.1 15.9 62.6 7.4 29.4 14.2 55.5 15.2 58 3.4 8.8 9.2 13.9 15.6 13.9 8 0 16.1 -5.6 17.9 -12.3 1.4 -5.2 -0.2 -17.8 -3.7 -30.6 -2.4 -8.6 -15.1 -58.3 -29 -113 -4.1 -16.2 -7.4 -30.9 -7.4 -32.6 0 -1.9 0.8 -3.9 1.9 -4.9 2.5 -2.3 5.4 -0.6 7.5 4.4 1.6 3.6 6.5 21.5 9.6 35 1.9 8 14.1 55.8 21 82.5 10.4 39.7 12.1 47.7 11.6 54.5 -0.8 11.4 -5.7 19.6 -14.6 24.4 -5.9 3.2 -15.1 4.3 -20.9 2.5z"/>
  <path d="M621.8 175.8 c-5.8 -2.1 -2.1 -9.4 6.2 -12.2 3.7 -1.2 4.8 -1.2 6.5 -0.2 4.1 2.7 2.4 7.9 -3.8 11.6 -3.5 2.2 -4.9 2.3 -8.9 0.8z"/>
  <path d="M775.6 15.4 c-1.1 -2.8 -0.6 -7.9 0.9 -10.1 2.6 -3.7 7.9 -4.7 24.5 -4.8 21.9 0 26 1.8 26 11.7 l0 4.8 -25.4 0 c-22.2 0 -25.5 -0.2 -26 -1.6z"/>
 </g>
</svg>